<?xml version="1.0" standalone="no"?>
<!DOCTYPE svg PUBLIC "-//W3C//DTD SVG 1.1//EN" "http://www.w3.org/Graphics/SVG/1.1/DTD/svg11.dtd" >
<!--
2013-9-30: Created.
-->
<svg>
<metadata>
Created by iconfont
</metadata>
<defs>

<font id="iconfont" horiz-adv-x="1024" >
  <font-face
    font-family="iconfont"
    font-weight="500"
    font-stretch="normal"
    units-per-em="1024"
    ascent="896"
    descent="-128"
  />
    <missing-glyph />
    
    <glyph glyph-name="x" unicode="x" horiz-adv-x="1001"
d="M281 543q-27 -1 -53 -1h-83q-18 0 -36.5 -6t-32.5 -18.5t-23 -32t-9 -45.5v-76h912v41q0 16 -0.5 30t-0.5 18q0 13 -5 29t-17 29.5t-31.5 22.5t-49.5 9h-133v-97h-438v97zM955 310v-52q0 -23 0.5 -52t0.5 -58t-10.5 -47.5t-26 -30t-33 -16t-31.5 -4.5q-14 -1 -29.5 -0.5
t-29.5 0.5h-32l-45 128h-439l-44 -128h-29h-34q-20 0 -45 1q-25 0 -41 9.5t-25.5 23t-13.5 29.5t-4 30v167h911zM163 247q-12 0 -21 -8.5t-9 -21.5t9 -21.5t21 -8.5q13 0 22 8.5t9 21.5t-9 21.5t-22 8.5zM316 123q-8 -26 -14 -48q-5 -19 -10.5 -37t-7.5 -25t-3 -15t1 -14.5
t9.5 -10.5t21.5 -4h37h67h81h80h64h36q23 0 34 12t2 38q-5 13 -9.5 30.5t-9.5 34.5q-5 19 -11 39h-368zM336 498v228q0 11 2.5 23t10 21.5t20.5 15.5t34 6h188q31 0 51.5 -14.5t20.5 -52.5v-227h-327z" />
    

    
    <glyph glyph-name="tuiguangguanggaowei" unicode="&#58888;" d="M901.12 258.048q-19.456 17.408-37.376 32.768t-33.28 27.648l136.192 0q17.408 0 26.624-9.216t9.216-19.456q0-11.264-9.216-21.504t-26.624-10.24l-65.536 0zM940.032 386.048l-896 2.048 0 429.056q0 32.768 23.04 55.808t55.808 23.04l739.328 0q32.768 0 55.296-23.04t22.528-55.808l0-431.104zM672.768 267.264q0-2.048 0.512-4.608t0.512-4.608l-662.528 0q-16.384 0-24.064 9.216t-7.68 20.48q0 10.24 7.68 20.48t24.064 10.24l695.296 0q-14.336-11.264-24.064-24.576t-9.728-26.624zM428.032 191.488l128 0 0-256q0-26.624-18.944-45.056t-45.568-18.432-45.056 18.432-18.432 45.056l0 256zM1001.472 102.4q14.336-11.264 14.848-31.744t-10.752-28.672q-17.408-14.336-45.568-31.744t-59.392-36.352-60.416-37.376-47.616-33.792q-23.552-19.456-35.328-19.968t-11.776 29.184l0 49.152q0 19.456-9.216 29.184t-24.576 9.728l-58.368 0q-14.336 0-25.088 7.168t-10.752 25.6l0 52.224q0 30.72 9.728 37.376t35.328 6.656q12.288 0 9.728 0t-5.12-0.512 2.56-0.512l34.816 0q22.528 0 31.744 15.872t9.216 35.328l0 48.128q0 20.48 8.704 26.112t26.112-8.704q18.432-14.336 48.128-32.768t61.952-37.888 62.464-38.4 48.64-33.28z"  horiz-adv-x="1037" />

    
    <glyph glyph-name="xinxi" unicode="&#58895;" d="M94.946954 596.568463 464.277604 227.239859c13.363356-12.647041 31.396057-20.418029 51.252291-20.418029 18.859533 0 36.069497 7.013741 49.210795 18.557658 2.426259 2.130524 371.189997 371.188974 371.189997 371.188974L94.946954 596.568463zM348.099604 316.47523 80.565409 48.943081 80.565409 584.015565ZM515.540128 185.818471c-22.852474 0-44.590568 8.656147-61.211107 24.379247l-0.284479 0.279363-94.169753 94.16566L89.742419 34.512417l851.392804 0L671.078577 304.565992c-56.028061-56.019875-95.773274-95.712899-96.767927-96.588849C558.045197 193.686672 537.172821 185.818471 515.540128 185.818471zM950.77886 48.943081 950.77886 584.015565 683.242618 316.47523Z"  horiz-adv-x="1024" />

    
    <glyph glyph-name="icon3" unicode="&#58897;" d="M511.163 737.578c-242.734 0-439.51-196.776-439.51-439.51s196.776-439.51 439.51-439.51 439.51 196.776 439.51 439.51-196.776 439.51-439.51 439.51zM548.701 706.441c0 0 27.53 15.968 37.11 6.387 9.58-9.58 43.113 1.596 129.338-49.499 0 0-18.991-20.252-23.143-19.038 2.424-4.402 9.876-17.825 15.159-26.122 6.387-10.030 7.984-10.727 7.984-10.727l-6.387-9.58 6.387-1.596c-6.387 1.596-9.58-17.564-18.825-20.758-9.245-3.194 2.857-20.758-0.336-23.952-3.194-3.194 1.596-31.935 0-48.865-1.596-16.93-7.984-2.231-15.968 0-7.984 2.231-20.758 7.349-21.851 12.139-1.093 4.79-3.697 19.161-0.504 27.145 3.194 7.984-9.58 15.968-15.968 21.823-6.387 5.855-31.935-1.065-36.725 0-4.79 1.065-7.984 14.902-7.984 27.676s22.355-1.596 34.937 0c12.582 1.596 14.564 33.431 14.564 33.431l-0.723 27.061c-5.162 2.064-6.005 4.74 2.32 8.168 0 0-27.145 6.387-33.532-7.984-6.387-14.371-9.58-12.976-11.178-27.246-1.596-14.27-26.613-1.698-32.467 0-5.854 1.698-21.823 20.859-21.823 20.859 4.79 11.178 7.984 19.161 7.984 19.161l-8.369 19.159v22.354zM296.797 557.942c2.709 3.614 20.758 35.129 43.113 25.548 22.355-9.58 36.725 11.178 36.725 11.178s32.823 33.532 34.774 28.742c0.715-1.755 1.429-3.506 1.951-4.79-1.951 4.79 27.145 12.774 30.338-3.194 3.194-15.968 22.355-24.002 22.355-24.002s-11.178-19.111-7.984-33.482c3.194-14.371 14.371-17.564 7.984-30.339-6.387-12.774-19.161-17.564-22.355-23.952-3.194-6.387-29.452 20.758-32.29 30.339-2.839 9.58-16.868 19.161-29.015 15.968-12.147-3.194-44.082-11.178-50.468-7.984-6.386 3.194-42.609 5.985-35.128 15.968zM724.73 88.493c-12.774-33.532-43.113-91.016-59.081-106.984s-35.129-46.307-49.499-57.483c-14.371-11.178-14.371-31.935-31.935-30.339-17.564 1.596-38.323 51.097-33.532 63.871 4.79 12.774-87.822 35.129-87.822 35.129s-39.919 4.79-47.903 81.435c-1.421 13.641-2.334 23.32-2.879 30.043-11.998 5.302-59.060 24.782-88.137 17.86-33.532-7.984-41.516 10.654-70.258 14.908l-49.499 45.769c0 0-81.435 94.21-71.855 110.177 9.58 15.968 9.58 59.081 11.178 68.661 1.596 9.58-12.744 70.258-11.961 78.242 0.784 7.984-11.99 38.323-11.99 38.323s30.339 63.871 35.129 63.871 22.355-54.289 39.919-55.887c17.564-1.596 65.467 1.596 72.653 9.58 7.186 7.984 13.572 17.564 21.556 17.564 7.984 0 7.984 4.79 22.355-1.596 14.371-6.387 30.339-15.968 36.725-25.548 6.387-9.58-4.79-28.742 28.742-28.742s33.532 7.984 38.323-14.371c4.79-22.355 10.467-71.855-3.548-75.048-14.016-3.194-55.532-51.805-52.338-67.418 3.194-15.614 3.194-39.565-3.194-53.935-6.387-14.371-11.178-19.161-35.129-17.564-23.952 1.596-44.2 14.371-50.842-4.79-6.642-19.161-19.349-62.328 2.939-57.969 0 0 35.129 10.692 47.903 0 12.774-10.693 94.21-45.821 94.21-45.821s73.451 79.838 188.418 28.742l19.161-12.774 31.935 6.943c0 0 41.516 12.218 55.887 9.025 14.371-3.194 14.371-3.194 14.371-3.194v6.387c-0.002-0.002 12.772-33.534-0.002-67.065zM911.552 270.524c0 0-9.58 14.371-9.58 29.487s-11.178 13.626-11.178 32.787c0 19.161-14.371 12.774-23.952 25.548-9.58 12.774-14.371-4.79-22.355-6.387-7.984-1.596-6.387-14.371-14.371-29.54-7.984-15.169-28.742-24.75-35.129-21.911-6.387 2.84-30.339 24.306-31.935 29.097-1.596 4.79-33.532 31.935-32.646 38.323 0.887 6.387-8.871 39.919-15.257 55.887-6.387 15.968 0 78.876 0 78.876-9.58 5.425 87.822 45.672 75.048 50.462-12.774 4.79-19.161 57.483-19.161 57.483s0 0 46.484-23.952c46.484-23.952 105.209-213.967 105.209-213.967v-54.29l-11.177-47.902z"  horiz-adv-x="1024" />

    
    <glyph glyph-name="qq" unicode="&#58947;" d="M152.462222 425.155556C147.911111 411.502222 154.737778 402.4 152.462222 352.337778 152.462222 338.684444 93.297778 277.244444 68.266667 211.253333 45.511111 147.537778 40.96 81.546667 77.368889 54.24 113.777778 26.933333 147.911111 140.711111 150.186667 124.782222 152.462222 117.955556 154.737778 111.128889 157.013333 102.026667 168.391111 70.168889 188.871111 36.035556 216.177778 4.177778 223.004444-2.648889 182.044444-14.026667 157.013333-54.986667 131.982222-95.946667 163.84-171.04 284.444444-171.04 439.182222-171.04 473.315556-116.426667 477.866667-116.426667L502.897778-116.426667C518.826667-116.426667 512-118.702222 525.653333-116.426667 532.48-116.426667 607.573333-182.417778 712.248889-171.04 889.742222-152.835556 862.435556-93.671111 848.782222-54.986667 835.128889-16.302222 782.791111 1.902222 785.066667 4.177778 828.302222 51.964444 835.128889 79.271111 848.782222 122.506667 855.608889 140.711111 896.568889 24.657778 928.426667 51.964444 942.08 63.342222 967.111111 108.853333 942.08 208.977778 914.773333 309.102222 864.711111 329.582222 864.711111 350.062222 866.986667 388.746667 864.711111 416.053333 864.711111 422.88 855.608889 457.013333 835.128889 450.186667 835.128889 457.013333 835.128889 652.711111 687.217778 812 505.173333 812 323.128889 812 175.217778 652.711111 175.217778 457.013333 177.493333 443.36 163.84 454.737778 152.462222 425.155556L152.462222 425.155556Z"  horiz-adv-x="1024" />

    
    <glyph glyph-name="lianxiren" unicode="&#58948;" d="M675.921373 144.800265c10.375302 13.665231 7.706519 33.155121-5.959735 43.528376-33.815153 25.669636-70.992891 45.116547-110.373807 57.987692 87.00354 43.259246 146.94063 133.087111 146.94063 236.665141 0 145.646148-118.491695 264.139889-264.137843 264.139889-145.646148 0-264.138866-118.492718-264.138866-264.139889 0-103.658871 60.031235-193.546088 147.145291-236.767472C174.776605 196.883481 65.673745 55.01538 65.673745-111.879722c0-17.157775 13.909801-31.067576 31.067576-31.067576s31.067576 13.909801 31.067576 31.067576c0 173.461657 141.121088 314.581722 314.582745 314.581722 69.264527 0 134.965901-22.082948 190.000332-63.862493C646.058229 128.465229 665.546072 131.134011 675.921373 144.800265zM240.386906 482.981475c0 111.385856 90.617857 202.004737 202.003713 202.004737 111.384833 0 202.00269-90.61888 202.00269-202.004737s-90.617857-202.00269-202.00269-202.00269C331.005786 280.978784 240.386906 371.596641 240.386906 482.981475zM548.491099 87.379485c0-17.157775 13.909801-31.210839 31.067576-31.210839l347.954807 0c17.157775 0 31.067576 14.053064 31.067576 31.210839s-13.909801 31.210839-31.067576 31.210839l-347.954807 0C562.4009 118.590324 548.491099 104.53726 548.491099 87.379485zM927.513482 17.28301l-347.954807 0c-17.157775 0-31.067576-14.053064-31.067576-31.210839s13.909801-31.210839 31.067576-31.210839l347.954807 0c17.157775 0 31.067576 14.053064 31.067576 31.210839S944.671257 17.28301 927.513482 17.28301zM927.513482-84.024304l-347.954807 0c-17.157775 0-31.067576-14.053064-31.067576-31.210839s13.909801-31.210839 31.067576-31.210839l347.954807 0c17.157775 0 31.067576 14.053064 31.067576 31.210839S944.671257-84.024304 927.513482-84.024304z"  horiz-adv-x="1024" />

    
    <glyph glyph-name="fuwu" unicode="&#58933;" d="M275.034519 813.129594c-110.972441 0-200.949708-89.976244-200.949708-200.949708 0-110.970394 89.976244-200.921056 200.949708-200.921056l200.947661 0L475.98218 612.180909C475.98218 723.15335 386.005936 813.129594 275.034519 813.129594L275.034519 813.129594zM414.12639 473.088014 275.034519 473.088014c-76.686567 0-139.093918 62.406329-139.093918 139.091872 0 76.715219 62.406329 139.120524 139.093918 139.120524 76.713172 0 139.091872-62.405305 139.091872-139.120524L414.12639 473.088014 414.12639 473.088014zM939.682128 612.180909c0 110.972441-89.979314 200.949708-200.949708 200.949708S537.781688 723.15335 537.781688 612.180909l0-200.921056 200.950731 0C849.703837 411.259854 939.682128 501.209492 939.682128 612.180909L939.682128 612.180909zM599.640548 612.180909c0 76.715219 62.377676 139.120524 139.091872 139.120524 76.686567 0 139.093918-62.405305 139.093918-139.120524 0-76.685543-62.406329-139.091872-139.093918-139.091872L599.640548 473.089038 599.640548 612.180909 599.640548 612.180909zM74.08481 148.510638c0-111.00007 89.976244-200.949708 200.949708-200.949708 110.971417 0 200.947661 89.949638 200.947661 200.949708L475.98218 349.432717 275.034519 349.432717C164.062078 349.432717 74.08481 259.481032 74.08481 148.510638L74.08481 148.510638zM414.12639 148.510638c0-76.717266-62.378699-139.120524-139.091872-139.120524-76.686567 0-139.093918 62.403259-139.093918 139.120524 0 76.68452 62.406329 139.092895 139.093918 139.092895l139.091872 0L414.12639 148.510638 414.12639 148.510638zM738.732419 349.432717 537.781688 349.432717l0-200.922079c0-110.971417 89.980337-200.949708 200.950731-200.949708s200.949708 89.978291 200.949708 200.949708C939.682128 259.481032 849.703837 349.432717 738.732419 349.432717L738.732419 349.432717zM738.732419 9.390114c-76.714196 0-139.091872 62.403259-139.091872 139.120524L599.640548 287.603533l139.091872 0c76.686567 0 139.093918-62.407352 139.093918-139.092895C877.826338 71.793372 815.420009 9.390114 738.732419 9.390114L738.732419 9.390114zM738.732419 9.390114"  horiz-adv-x="1024" />

    
    <glyph glyph-name="buchongiconsvg02" unicode="&#58972;" d="M912.046 582.741c-22.103 46.546-53.683 88.293-93.863 124.083-39.967 35.599-86.455 63.53-138.174 83.015-53.383 20.112-110.053 30.31-168.432 30.31-58.379 0-115.049-10.198-168.433-30.31-51.719-19.485-98.208-47.415-138.174-83.015-40.18-35.79-71.761-77.537-93.863-124.083-22.997-48.429-34.657-99.895-34.657-152.967 0-89.659 34.325-176.388 96.95-245.719l-35.858-152.643c-0.020-0.087-0.041-0.175-0.060-0.263-3.307-14.78 1.381-30.314 12.236-40.538 7.613-7.172 17.32-10.982 27.303-10.981 3.663 0 7.364 0.513 11.010 1.562 1.098 0.315 2.174 0.704 3.219 1.164l157.273 69.067c12.937 5.682 18.82 20.775 13.138 33.711-5.682 12.937-20.774 18.818-33.711 13.138l-136.191-59.809 34.584 147.217c1.992 8.484-0.469 17.397-6.533 23.655-59.45 61.346-92.191 139.633-92.191 220.439 0 187.040 172.244 339.206 383.96 339.206 211.716 0 383.959-152.168 383.959-339.206s-172.244-339.206-383.959-339.206c-27.796 0-55.528 2.637-82.424 7.839-13.874 2.681-27.294-6.389-29.976-20.26-2.683-13.873 6.389-27.294 20.261-29.976 30.090-5.819 61.090-8.769 92.14-8.769 58.379 0 115.049 10.198 168.432 30.31 51.719 19.485 98.208 47.415 138.174 83.015 40.18 35.79 71.76 77.537 93.863 124.083 22.997 48.429 34.657 99.895 34.657 152.967-0.002 53.071-11.662 104.537-34.659 152.966zM342.513 492.207c-30.163 0-54.614-24.452-54.614-54.614 0-30.163 24.452-54.614 54.614-54.614s54.614 24.452 54.614 54.614c0.001 30.162-24.451 54.614-54.614 54.614zM566.617 437.592c0 30.162-24.452 54.614-54.614 54.614-30.163 0-54.614-24.452-54.614-54.614 0-30.163 24.452-54.614 54.614-54.614 30.162-0.001 54.614 24.451 54.614 54.614zM736.108 437.592c0 30.162-24.452 54.614-54.614 54.614s-54.614-24.452-54.614-54.614c0-30.163 24.452-54.614 54.614-54.614 30.162-0.001 54.614 24.451 54.614 54.614z"  horiz-adv-x="1025" />

    
    <glyph glyph-name="lianxi" unicode="&#58889;" d="M701.827194 67.175186 1024 67.175186l-4.00952 30.747516c-17.378518 113.628622-88.229098 212.553704-188.490687 266.025766 49.462541 45.451056 80.208092 110.955608 80.208092 181.806188 0 137.691639-110.955608 248.647248-248.647248 248.647248-85.556084 0-163.091163-42.778042-208.544184-113.628622-29.41101 12.030526-60.15656 18.715025-93.57709 18.715025-137.691639 0-248.647248-110.955608-248.647248-248.647248 0-72.187086 30.747516-136.355132 78.871585-181.806188C90.904077 215.560845 21.388038 117.974234 4.00952 4.343647L0-26.401904l721.880691 0-4.00952 30.747516C713.859685 25.733651 708.511693 47.121689 701.827194 67.175186zM663.060637 740.929843c106.946088 0 195.175186-86.892591 195.175186-195.175186 0-66.84106-34.757036-126.99762-85.556084-161.754656l-1.336507-1.336507c-2.673013-1.336507-4.00952-2.673013-6.684499-4.00952-10.694019-6.684499-21.388038-10.694019-32.084023-16.042012-1.336507-1.336507-4.00952-1.336507-5.347992-1.336507-2.673013-1.336507-6.684499-2.673013-9.357512-2.673013-4.00952-1.336507-6.684499-1.336507-10.694019-2.673013-2.673013 0-5.347992-1.336507-8.021006-1.336507-4.00952-1.336507-8.021006-1.336507-12.032491-1.336507-1.336507 0-4.00952 0-5.347992 0-5.347992 0-12.030526-1.336507-17.378518-1.336507-6.684499 0-14.705505 0-21.390004 1.336507-2.673013 0-5.347992 0-6.684499 1.336507-5.347992 1.336507-9.357512 1.336507-14.705505 2.673013-2.673013 0-4.00952 1.336507-6.684499 1.336507-6.684499 1.336507-13.368998 4.00952-20.051532 6.684499 0 1.336507 1.336507 4.00952 1.336507 5.347992 1.336507 4.00952 2.673013 8.021006 4.00952 13.368998 1.336507 4.00952 2.673013 8.021006 2.673013 12.030526 1.336507 2.673013 1.336507 6.684499 2.673013 9.357512 17.378518-8.021006 37.43005-13.368998 58.820054-13.368998 57.483547 0 106.946088 36.093543 126.99762 86.892591l-181.806188 0 0 1.336507c-1.336507 6.684499-1.336507 14.705505-2.673013 21.390004 0 1.336507 0 2.673013-1.336507 4.00952-1.336507 6.684499-2.673013 13.368998-5.347992 20.051532 0 0 0 0 0 1.336507-2.673013 6.684499-5.347992 14.705505-8.021006 21.390004 0 1.336507-1.336507 1.336507-1.336507 2.673013-16.042012 36.093543-38.768522 68.177566-69.514073 93.57709 0 0 0 0-1.336507 0-5.347992 4.00952-10.694019 9.357512-17.378518 13.368998C537.399524 708.84582 597.556084 740.929843 663.060637 740.929843zM165.764177 450.84106c0 106.946088 86.892591 195.175186 195.175186 195.175186 33.42053 0 65.504553-8.021006 92.240583-24.063017 0 0 0 0 1.336507 0 5.347992-2.673013 9.357512-5.347992 13.368998-8.021006 1.336507 0 1.336507-1.336507 2.673013-1.336507 9.357512-6.684499 18.715025-14.705505 28.072537-22.726511l0 0c13.368998-13.368998 24.063017-28.072537 33.42053-44.114549l1.336507-1.336507c2.673013-5.347992 5.347992-10.694019 8.021006-16.042012 0 0 0 0 0-1.336507 2.673013-5.347992 4.00952-9.357512 5.347992-14.705505 0-1.336507 1.336507-2.673013 1.336507-4.00952 1.336507-5.347992 2.673013-10.694019 4.00952-16.042012l0-1.336507c1.336507-5.347992 1.336507-10.694019 2.673013-16.042012 0-1.336507 0-2.673013 0-4.00952 0-5.347992 1.336507-12.030526 1.336507-17.378518 0-6.684499 0-14.705505-1.336507-21.390004 0-2.673013 0-4.00952-1.336507-6.684499-1.336507-5.347992-1.336507-10.694019-2.673013-14.705505 0-2.673013-1.336507-4.00952-1.336507-6.684499-1.336507-5.347992-2.673013-10.694019-5.347992-16.042012 0-1.336507-1.336507-2.673013-1.336507-4.00952-2.673013-6.684499-5.347992-12.030526-8.021006-18.715025l0-1.336507c-1.336507-2.673013-2.673013-6.684499-5.347992-9.357512-1.336507-1.336507-1.336507-2.673013-2.673013-5.347992-4.00952-5.347992-6.684499-10.694019-10.694019-16.042012 0-1.336507-1.336507-1.336507-1.336507-2.673013-2.673013-2.673013-4.00952-5.347992-6.684499-8.021006-1.336507-1.336507-2.673013-2.673013-4.00952-4.00952-2.673013-2.673013-4.00952-5.347992-6.684499-6.684499-1.336507-1.336507-2.673013-2.673013-4.00952-2.673013-4.00952-4.00952-9.357512-8.021006-14.705505-12.030526-1.336507-1.336507-2.673013-2.673013-4.00952-2.673013-2.673013-1.336507-5.347992-4.00952-8.021006-5.347992-1.336507-1.336507-2.673013-1.336507-2.673013-1.336507-6.684499-4.00952-13.368998-8.021006-20.051532-10.694019-1.336507 0-1.336507-1.336507-2.673013-1.336507-2.673013-1.336507-6.684499-2.673013-9.357512-4.00952s-4.00952-1.336507-6.684499-2.673013c-2.673013-1.336507-5.347992-1.336507-8.021006-2.673013l-1.336507 0c-4.00952-1.336507-6.684499-1.336507-10.694019-2.673013-2.673013 0-4.00952-1.336507-6.684499-1.336507l0 0-1.336507 0c-4.00952-1.336507-8.021006-1.336507-12.030526-1.336507-1.336507 0-4.00952 0-5.347992 0-5.347992 0-12.030526-1.336507-17.378518-1.336507s-12.030526 0-17.378518 1.336507c-1.336507 0-4.00952 0-5.347992 0-4.00952 0-8.021006 1.336507-12.030526 1.336507-1.336507 0-4.00952 0-5.347992 1.336507-5.347992 1.336507-9.357512 2.673013-14.705505 4.00952-2.673013 1.336507-5.347992 1.336507-8.021006 2.673013-2.673013 1.336507-4.00952 1.336507-6.684499 2.673013-2.673013 1.336507-6.684499 2.673013-9.357512 4.00952-1.336507 0-2.673013 1.336507-2.673013 1.336507-6.684499 2.673013-13.368998 6.684499-18.715025 10.694019-1.336507 1.336507-4.00952 2.673013-5.347992 2.673013l-2.673013 1.336507C199.184706 325.179946 165.764177 384 165.764177 450.84106zM62.829574 27.070157c24.063017 92.240583 88.229098 168.439155 176.460161 207.205712 2.673013-1.336507 5.347992-2.673013 9.357512-4.00952 2.673013-1.336507 6.684499-2.673013 9.357512-4.00952s6.684499-2.673013 9.357512-4.00952c5.347992-2.673013 10.694019-4.00952 16.042012-6.684499 2.673013-1.336507 5.347992-1.336507 8.021006-2.673013 4.00952-1.336507 9.357512-2.673013 13.368998-4.00952 2.673013 0 4.00952-1.336507 6.684499-1.336507 6.684499-1.336507 13.368998-2.673013 20.051532-2.673013 1.336507 0 4.00952 0 5.347992 0 8.021006-1.336507 14.705505-1.336507 22.726511-1.336507s14.705505 0 22.726511 1.336507c1.336507 0 4.00952 0 5.347992 0 4.00952 0 8.021006 1.336507 13.368998 1.336507l0 0 0 0c2.673013 0 4.00952 1.336507 6.684499 1.336507s4.00952 1.336507 6.684499 1.336507c1.336507 0 1.336507 0 2.673013 0l0 0c2.673013 1.336507 6.684499 1.336507 9.357512 2.673013l1.336507 0c1.336507 0 2.673013 0 2.673013 1.336507 2.673013 0 4.00952 1.336507 6.684499 1.336507 2.673013 1.336507 5.347992 1.336507 8.021006 2.673013l0 0 2.673013 1.336507 0 0c2.673013 1.336507 4.00952 1.336507 6.684499 2.673013 2.673013 1.336507 6.684499 2.673013 9.357512 4.00952s5.347992 2.673013 9.357512 4.00952c2.673013 1.336507 5.347992 2.673013 9.357512 4.00952 68.177566-29.41101 124.324607-82.883071 156.406664-151.060637l4.00952-8.021006c6.684499-14.705505 12.030526-30.747516 16.042012-46.789528L62.829574 27.070157 62.829574 27.070157zM651.028146 164.761797l-1.336507 1.336507c-4.00952 5.347992-9.357512 12.032491-13.368998 17.378518-1.336507 1.336507-2.673013 2.673013-4.00952 4.00952-4.00952 4.00952-8.021006 9.357512-12.030526 13.368998-1.336507 1.336507-4.00952 4.00952-5.347992 5.347992-4.00952 4.00952-8.021006 8.021006-12.030526 10.694019-2.673013 2.673013-4.00952 4.00952-6.684499 6.684499-4.00952 4.00952-8.021006 6.684499-12.030526 9.357512-2.673013 2.673013-5.347992 4.00952-8.021006 6.684499-5.347992 4.00952-10.694019 8.021006-16.042012 10.694019-2.673013 2.673013-6.684499 4.00952-9.357512 5.347992-5.347992 4.00952-10.694019 6.684499-17.378518 9.357512 0 0-1.336507 0-1.336507 1.336507 1.336507 1.336507 1.336507 1.336507 2.673013 2.673013 2.673013 2.673013 4.00952 4.00952 6.684499 6.684499 4.00952 4.00952 8.021006 8.021006 10.694019 12.030526 2.673013 2.673013 4.00952 5.347992 6.684499 8.021006 2.673013 2.673013 5.347992 6.684499 6.684499 9.357512 1.336507 2.673013 4.00952 5.347992 5.347992 8.021006 0 0 0 0 0 1.336507 29.41101-12.030526 61.493067-18.715025 93.57709-18.715025 28.072537 0 56.145075 5.347992 81.546564 13.368998l1.336507 0c6.684499 2.673013 14.705505 5.347992 21.388038 8.021006 2.673013 1.336507 5.347992 2.673013 8.021006 4.00952s5.347992 2.673013 8.021006 4.00952c88.229098-37.43005 155.070157-114.965129 177.796668-207.205712L680.43719 117.972269C671.081643 136.689259 660.385658 151.394764 651.028146 164.761797zM362.275869 294.434395c57.483547 0 106.946088 36.093543 126.99762 86.892591l-253.99524 0C255.331747 330.527939 304.794288 294.434395 362.275869 294.434395z"  horiz-adv-x="1024" />

    
    <glyph glyph-name="information" unicode="&#59226;" d="M450.778 793.071c0-61.113 46.903-102.583 104.769-102.583 57.835 0 104.739 41.471 104.739 102.583 0 61.144-46.904 102.583-104.739 102.583-57.866-0.001-104.769-41.44-104.769-102.583zM224.001 443.006c0-12.117-2.248-42.222 0.25-60.364l91.405 108.299c18.923 20.423 40.783 34.693 51.994 30.822 11.18-3.872 17.3-16.769 13.647-28.854l-151.269-493.275c-17.424-57.71 15.52-114.419 95.808-127.286 117.603 0 187.492 78.321 256.194 179.874 0 12.116 4.121 44.062 1.622 62.236l-91.402-108.329c-18.925-20.362-42.469-34.726-53.652-30.853-10.368 3.623-16.362 14.927-14.332 26.169l152.329 495.679c12.679 62.956-21.733 120.228-94.526 127.566-76.54-0.002-189.366-80.164-258.068-181.685z"  horiz-adv-x="1024" />

    
    <glyph glyph-name="app" unicode="&#58950;" d="M4.375657 280.907017 4.375657 418.678824c0 12.622482 10.367115 22.945595 23.070438 22.945595l243.444545 0L164.897607 257.950166 27.445072 257.950166C14.742772 257.950166 4.375657 268.23951 4.375657 280.907017L4.375657 280.907017zM177.793312-1.192919l-77.694523-52.636824c-10.45205-7.116071-17.845437-2.600221-16.398482 9.940396l10.369162 90.066295c1.442862 12.534478 11.614525 17.668405 22.618137 11.392468l60.126402-34.349319C187.795107 16.915507 188.245362 5.87915 177.793312-1.192919L177.793312-1.192919zM196.447161 49.567161l-60.126402 34.351366c-10.990309 6.297426-14.866592 20.380166-8.468882 31.326473L406.266887 597.865879c6.313799 10.968819 20.557198 14.81645 31.538297 8.457626l60.125379-34.278711c10.997472-6.353708 14.783705-20.445658 8.476045-31.376615L227.991598 58.009438C221.682915 47.055968 207.433376 43.308621 196.447161 49.567161L196.447161 49.567161zM408.349315 257.950166l105.98587 183.674253 61.028958 0 86.073354-183.674253L408.349315 257.950166 408.349315 257.950166zM753.553475 203.134723C729.483266 215.140151 609.602945 490.513896 578.88841 562.361247c-30.742165 71.848375-123.587759 263.102257-93.558839 277.968849 21.37175 10.68127 98.063433-139.924843 155.560962-230.326782 57.415664-90.417289 177.478134-323.543837 192.251605-350.093517 14.699794-26.611078-14.143115-48.801473-30.18037-55.432497C786.909164 197.82274 777.61038 191.213205 753.553475 203.134723L753.553475 203.134723zM832.328609 76.557886l-36.220946 56.973596c-7.489578 11.83249-3.602038 26.460652 8.547677 32.719192l34.523281 17.674545c12.177344 6.186909 27.412326 1.186012 33.887808-11.219529l28.576849-54.702879c6.499018-12.384052 2.071172-28.269857-9.648754-35.253922l-24.690332-14.693654C855.582219 60.959629 839.818187 64.813401 832.328609 76.557886L832.328609 76.557886zM965.633684-72.868355c-7.568373 24.127514-65.344241 25.737174-91.213421 62.087057-25.954115 36.220946-4.505617 54.887075 4.504594 63.501266C983.847511 111.547795 965.633684-72.868355 965.633684-72.868355L965.633684-72.868355zM1019.624343 280.907017c0-12.668531-10.363022-22.957875-23.064298-22.957875L874.698602 257.949142c-1.342578 7.072069-3.52529 14.164604-7.206122 20.796652-3.173273 5.662977-11.1919 20.887726-22.361287 42.153052-16.126282 30.66337-39.295981 74.531484-64.090691 120.725572l215.508285 0c12.7023 0 23.064298-10.323113 23.064298-22.951735l0-137.765667L1019.624343 280.907017 1019.624343 280.907017zM1019.624343 280.907017"  horiz-adv-x="1024" />

    
    <glyph glyph-name="iconfont" unicode="&#58949;" d="M342.677 300.998M900.201 510.979 738.452 349.225c-35.735-35.731-93.669-35.731-129.404 0l-32.35 32.354 64.7 64.695c17.87-17.861 46.834-17.861 64.704 0l97.049 97.054c17.865 17.865 17.865 46.834 0 64.7l-97.049 97.049c-17.87 17.87-46.834 17.87-64.704 0l-97.049-97.049c-17.865-17.865-17.865-46.834 0-64.7l-64.7-64.7-32.35 32.35c-35.735 35.731-35.735 93.669 0 129.399L609.048 802.127c35.735 35.735 93.669 35.735 129.404 0l161.749-161.749C935.936 604.648 935.936 546.71 900.201 510.979zM382.599 316.875l226.449 226.453 32.35-32.35L414.949 284.53 382.599 316.875zM382.599 381.58c-17.865 17.865-46.834 17.865-64.7 0l-97.054-97.049c-17.865-17.87-17.865-46.834 0-64.704l97.054-97.049c17.865-17.865 46.834-17.865 64.7 0l97.049 97.049c17.865 17.87 17.865 46.834 0 64.704l64.7 64.7 32.35-32.354c35.735-35.731 35.735-93.664 0-129.399L414.949 25.727c-35.731-35.731-93.669-35.731-129.399 0L123.796 187.476c-35.731 35.735-35.731 93.669 0 129.399l161.754 161.754c35.731 35.731 93.669 35.731 129.399 0l32.35-32.35L382.599 381.58z"  horiz-adv-x="1024" />

    
    <glyph glyph-name="shouye-copy" unicode="&#58922;" d="M1010.742 447.761l-138.992 109.515v121.009c0 20.452-16.391 37.070-36.59 37.070h-69.75c-20.201 0-36.56-16.618-36.56-37.070v-16.678l-171.53 131.474c-0.72 0.542-1.466 1.024-2.239 1.453-12.629 8.59-27.379 13.204-42.721 13.204-16.006 0-31.315-4.916-44.368-14.233-0.146-0.154-0.358-0.332-0.566-0.426l-453.422-345.317c-12.067-8.899-14.694-25.908-5.99-38.065 8.763-12.153 25.59-14.897 37.63-6.064l453.036 345.141c0.092 0.031 0.209 0.092 0.3 0.151 3.905 2.805 8.551 4.315 13.381 4.315 4.829 0 9.471-1.508 13.346-4.315 0.178-0.121 0.386-0.207 0.597-0.332l452.767-344.961c12.066-8.833 28.901-6.089 37.634 6.064 8.732 12.158 6.105 29.166-5.963 38.065zM862.9 391.241l-314.22 242.892c-0.062 0.062-0.183 0.116-0.212 0.148-10.603 7.66-23.090 11.705-36.108 11.764-12.964 0-25.422-4.076-35.994-11.643-0.091-0.124-0.207-0.154-0.331-0.271l-314.188-242.892c-7.029-5.188-11.142-13.392-11.142-22.051v-307.529c0-52.604 42.309-95.344 94.209-95.344h152.285v229.263c0 40.449 32.326 73.145 72.223 73.145h74.94c39.897 0 72.249-32.694 72.249-73.145v-229.263h163.162c51.961 0 94.21 42.739 94.21 95.344v307.529c0.001 8.66-4.144 16.863-11.081 22.051z"  horiz-adv-x="1024" />

    
    <glyph glyph-name="weibiaoti104" unicode="&#58885;" d="M491.25 638c-70.135 0-127-56.865-127-127 0-70.151 56.865-127 127-127s127 56.849 127 127C618.25 581.135 561.385 638 491.25 638zM491.25 892c-210.406 0-381-170.61-381-381 0-210.406 381-635 381-635s381 424.594 381 635C872.25 721.39 701.656 892 491.25 892zM491.25 257c-140.27 0-254 113.714-254 254 0 140.255 113.73 254 254 254s254-113.745 254-254C745.25 370.714 631.52 257 491.25 257z"  horiz-adv-x="1024" />

    
    <glyph glyph-name="zhuce" unicode="&#58975;" d="M761.737 241.339c-28.851 21.378-59.866 38.732-92.449 51.895 18.491 11.671 35.822 25.476 51.663 41.316 55.812 55.813 86.55 130.02 86.55 208.95s-30.737 153.137-86.55 208.95C665.138 808.263 590.931 839 512 839s-153.137-30.737-208.95-86.55c-55.812-55.813-86.55-130.02-86.55-208.95s30.737-153.137 86.55-208.95c15.965-15.964 33.439-29.867 52.094-41.596 0.003-0.002 0.006-0.003 0.008-0.005-0.094-0.038-0.186-0.079-0.28-0.116l0.146 0c-44.473-18.02-85.873-43.708-122.259-76.344-76.33-68.464-124.826-162.017-136.555-263.427-1.967-17.008 10.226-32.39 27.233-34.356 1.21-0.14 2.411-0.208 3.6-0.208 15.527 0.001 28.929 11.645 30.756 27.441 9.987 86.357 51.312 166.05 116.363 224.396 65.545 58.791 150.183 91.169 238.322 91.169 77.133 0 150.561-24.198 212.345-69.979 13.757-10.194 33.17-7.305 43.364 6.451C778.381 211.732 775.493 231.146 761.737 241.339zM346.891 378.391C302.788 422.493 278.5 481.13 278.5 543.5s24.288 121.007 68.391 165.109S449.63 777 512 777s121.007-24.288 165.109-68.391S745.5 605.87 745.5 543.5s-24.288-121.007-68.391-165.109c-28.794-28.794-63.786-49.136-101.966-59.793-23.924-6.666-48.879-9.452-73.685-8.358-17.773 0.784-35.463 3.575-52.601 8.358-0.034 0.009-0.067 0.02-0.101 0.03l0 0C410.617 329.292 375.66 349.621 346.891 378.391zM958.833 78.917l-79.75 0 0 79.75c0 17.121-13.879 31-31 31s-31-13.879-31-31l0-79.75-79.75 0c-17.121 0-31-13.879-31-31s13.879-31 31-31l79.75 0 0-79.75c0-17.121 13.879-31 31-31s31 13.879 31 31l0 79.75 79.75 0c17.121 0 31 13.879 31 31S975.954 78.917 958.833 78.917z"  horiz-adv-x="1024" />

    
    <glyph glyph-name="bangbang" unicode="&#58939;" d="M889.136941 269.777539c1.473561 24.938995-5.098111 42.510186-11.600199 53.489238 8.233522 10.791787 17.704221 28.717042 18.23941 54.425563 1.427512 72.359005-65.940828 96.679923-102.95586 99.461269L679.762353 477.15361l-1.591241 0.106424c-4.583388 10.18292 2.547009 21.476127 2.477424 21.476127-0.022513 0-0.022513 0-0.047072-0.010233 1.544169 1.88186 37.461193 47.046502 61.638849 120.880091 26.797319 81.911568-41.949414 139.891074-44.89449 142.311193l-4.024663 2.431376c-2.664689 1.133823-26.608008 10.615779-49.267077-3.087315-17.304108-10.486842-27.804253-30.78412-31.17093-60.340273-7.809873-68.701708-63.860447-126.283148-90.027409-147.374512-3.647063-2.958378-6.593162-5.342682-8.604982-7.133468-19.056008-16.929578-37.97387-61.321624-52.284807-91.532693-9.587356-20.204158-35.869952-52.696176-49.40727-64.678068-9.18929-0.199545-27.429723-0.550539-39.588647-0.607844-4.629437 15.056927-18.192338 32.875758-34.32783 32.875758L165.60727 422.470173c-19.923772 0-36.139082-16.682961-36.139082-37.192064l0-345.081363c0-20.517289 16.21531-37.201274 36.139082-37.201274l173.035962 0c17.584494 0 32.269961 13.001105 35.449373 30.16502 6.221702 0.268106 11.904121 6.245238 15.154141 5.810333 4.489244-5.051039 14.636349-24.645306 39.423895-34.968419l2.945075-1.240247 3.133364 0c1.988284 0 116.310006-0.326435 219.944318-0.326435 52.331879 0 97.79021 0.093121 116.310006 0.326435 33.531698 0.467651 50.928926 15.584953 59.650565 28.200272 16.85897 24.413016 17.2335 52.193733 14.170744 68.782549 21.933545 20.75265 24.481577 58.167794 25.043373 73.705676 0.491187 13.900591-2.804882 23.779589-7.225565 33.788547C874.942661 218.709443 887.429043 241.20376 889.136941 269.777539zM342.129636 40.19777c0-1.976004-1.567705-3.587712-3.485381-3.587712L165.60727 36.610058c-1.918699 0-3.459798 1.611707-3.459798 3.587712L162.147472 385.279133c0 1.976004 1.542122 3.577478 3.459798 3.577478l173.035962 0c1.918699 0 3.485381-1.601474 3.485381-3.577478L342.128613 40.19777zM846.485539 338.126206l-16.182564-12.262278 14.82566-14.054087c0.561795-0.50142 13.025665-12.662391 11.387351-39.97341-1.846044-31.193443-22.424732-44.522006-22.659069-44.61615l-23.61586-10.149151 18.96391-17.314341c1.589195-1.837858 9.351995-11.506055 7.856945-27.593452-1.287319-13.725606-6.173606-41.693588-20.367887-52.869115l-18.565844-7.29515 12.978593-11.376095c3.297093-10.184967 3.858888-34.340109-7.086395-50.193169-6.359848-9.236362-17.304108-13.833053-33.437553-14.053064-51.9113-0.701988-300.150034-0.082888-332.511069 0-10.265808 4.465708-20.62576 9.972119-23.992437 12.767791-2.851954 5.238304-10.660804 24.714891-40.009226 23.756053L374.070092 355.991086c17.2335 0.116657 44.942585 0.738827 44.942585 0.738827l5.612834 0.116657 4.326539 3.647063c1.893116 1.564635 46.298466 45.74895 62.386886 79.643921 15.385409 32.455179 31.191396 69.214385 44.262086 80.83505 1.707898 1.520633 4.25593 3.566222 7.413853 6.127558 26.844392 21.629623 92.926436 87.302345 102.32448 169.915901 2.058892 18.156522 7.297197 30.315446 15.107069 35.17922 6.686283 4.126994 14.778588 2.689249 18.473747 1.684362 9.657964-8.990768 49.758264-50.402947 32.338522-103.543238-22.12081-67.600631-55.488779-109.785405-56.517201-111.13924-8.324596-11.973706-18.192338-38.689161-2.50096-62.879096 7.131421-10.988262 19.430538-13.782911 28.550243-12.767791l110.766756 0.048095c2.968611-0.24764 72.700789-6.665817 71.530127-65.215304C862.5494 350.942093 846.95319 338.500737 846.485539 338.126206z"  horiz-adv-x="1024" />

    
    <glyph glyph-name="a157" unicode="&#58923;" d="M980.608 177.536c0.384 0.704 0.512 1.408 0.768 2.176C1009.024 243.264 1024 312.512 1024 384c0 37.504-4.16 74.048-11.904 109.248-0.192 1.216-0.512 2.368-0.832 3.584-45.184 200.064-207.808 356.096-411.392 391.552-1.344 0.256-2.56 0.576-3.968 0.64C568.704 893.504 540.608 896 512 896 268.48 896 64.32 725.056 12.736 496.96c-0.32-1.28-0.64-2.56-0.896-3.84C4.16 457.92 0 421.44 0 384c0-7.232 0.128-14.464 0.448-21.632C1.344 341.76 18.432 326.208 39.296 326.592 59.904 327.424 75.904 344.896 75.008 365.44 74.688 371.584 74.624 377.792 74.624 384c0 22.336 1.728 44.288 4.928 65.728l139.456 0C218.816 442.688 218.56 435.84 218.56 428.736c0-20.544 16.704-37.312 37.312-37.312 20.608 0 37.312 16.768 37.312 37.312 0 7.04 0.256 13.952 0.512 20.992l181.12 0 0-59.2c0-20.608 16.64-37.312 37.248-37.312s37.312 16.704 37.312 37.312L549.376 449.728l181.056 0c0.256-6.976 0.512-13.888 0.512-20.992 0-64.384-8.064-126.144-24-183.36-5.504-19.968 6.144-40.512 25.984-45.952 3.328-0.96 6.656-1.344 9.984-1.344 16.32 0 31.296 10.816 35.968 27.328 17.664 63.808 26.688 132.224 26.688 203.392 0 7.04-0.32 13.952-0.512 20.992l139.456 0C947.712 428.288 949.376 406.336 949.376 384c0-60.992-12.8-120.256-36.416-174.528-10.816-15.232-78.016-100.928-233.28-113.6-20.608-1.6-39.232-2.496-56.832-2.496-82.624 0-153.792 18.88-220.736 58.944l83.52 89.088c10.24 10.88 12.992 26.688 7.104 40.384C486.784 295.424 473.344 304.256 458.496 304.256L120.896 304.256c-20.544 0-37.312-16.704-37.312-37.312l0-337.216c0-15.104 9.088-28.736 23.04-34.496 13.952-5.76 29.952-2.624 40.64 8.064l84.032 84.096C278.528-54.08 380.864-127.936 512-128l0.128 0c153.344 0 365.888 78.336 465.152 298.112 0.256 0.576 0.512 1.216 0.768 1.728C978.88 173.76 979.84 175.552 980.608 177.536M444.608 816.128c9.856 1.536 19.968 2.688 30.08 3.52L474.688 698.88C436.48 703.04 399.872 713.536 365.76 730.048 388.096 767.552 414.656 797.312 444.608 816.128M549.312 819.648c9.856-0.832 19.776-1.856 29.504-3.392C608.64 797.632 635.456 767.744 657.92 729.664 623.872 713.344 587.328 702.976 549.312 698.88L549.312 819.648zM97.856 524.352C125.44 605.568 176.256 676.096 242.432 728.064c2.304-5.568 5.824-10.752 10.88-14.848 4.928-4.032 10.24-7.552 15.36-11.264C247.04 649.152 231.936 588.928 224.256 524.352L97.856 524.352 97.856 524.352zM299.328 524.352C305.92 574.528 317.696 621.44 333.632 663.04 377.856 641.856 425.6 628.352 474.688 623.872l0-99.52L299.328 524.352 299.328 524.352zM549.312 524.352 549.312 623.808c48.896 4.416 96.512 17.792 140.672 38.784 15.936-41.6 27.776-88.384 34.496-138.24L549.312 524.352zM799.488 524.352c-7.68 64-23.04 124.032-44.736 176.832 5.12 3.776 10.432 7.296 15.36 11.264 5.376 4.288 9.024 9.728 11.328 15.744 66.24-51.968 117.056-122.56 144.704-203.84L799.488 524.352zM512.128-90.752 512-53.44c-144.704 0.064-252.352 116.928-253.376 118.016-6.784 7.616-16.512 12.096-26.752 12.352-0.32 0-0.64 0-0.96 0-9.856 0-19.392-3.968-26.368-10.944l-46.272-46.272 0 209.792 214.016 0-54.848-58.432c-7.296-7.808-10.944-18.368-9.92-29.056 1.024-10.624 6.592-20.352 15.296-26.624 89.472-65.088 187.712-96.704 300.096-96.704 19.648 0 40.192 0.896 62.848 2.752 35.008 2.88 66.368 9.024 94.528 17.152-7.936-6.208-16.064-12.16-24.512-17.792-1.216-0.896-2.24-1.92-3.392-2.88-78.784-50.624-167.36-71.36-240.256-71.36L512.128-90.752z"  horiz-adv-x="1024" />

    
    <glyph glyph-name="zhuce-copy" unicode="&#58882;" d="M731.495 258.614c-25.357 18.789-52.616 34.042-81.254 45.611 16.252 10.258 31.484 22.391 45.407 36.313 49.054 49.055 76.070 114.276 76.070 183.648s-27.015 134.593-76.070 183.648c-49.055 49.055-114.276 76.070-183.649 76.070s-134.593-27.015-183.648-76.070c-49.054-49.055-76.070-114.276-76.070-183.648s27.015-134.593 76.070-183.648c14.032-14.031 29.39-26.25 45.786-36.559 0.003-0.002 0.006-0.003 0.007-0.005-0.082-0.034-0.163-0.069-0.247-0.102h0.128c-39.087-15.838-75.474-38.415-107.454-67.099-67.087-60.173-109.71-142.398-120.019-231.528-1.729-14.948 8.988-28.468 23.935-30.196 1.063-0.123 2.119-0.183 3.164-0.183 13.647 0.001 25.426 10.235 27.032 24.118 8.778 75.9 45.098 145.943 102.272 197.223 57.608 51.672 131.997 80.129 209.463 80.129 67.793 0 132.329-21.268 186.631-61.505 12.091-8.96 29.153-6.42 38.113 5.67 8.96 12.090 6.421 29.153-5.669 38.112zM366.884 379.071c-38.763 38.762-60.11 90.298-60.11 145.116s21.347 106.354 60.11 145.116 90.298 60.11 145.116 60.11 106.354-21.347 145.116-60.11 60.11-90.298 60.11-145.116-21.347-106.354-60.11-145.116c-25.307-25.307-56.062-43.186-89.618-52.552-21.027-5.858-42.96-8.307-64.763-7.346-15.621 0.689-31.169 3.142-46.231 7.346-0.030 0.008-0.059 0.018-0.089 0.026v0c-33.52 9.373-64.245 27.24-89.529 52.526zM904.724 115.861h-70.093v70.093c0 15.048-12.199 27.247-27.247 27.247s-27.247-12.199-27.247-27.247v-70.093h-70.093c-15.048 0-27.247-12.199-27.247-27.247s12.199-27.247 27.247-27.247h70.093v-70.093c0-15.048 12.199-27.247 27.247-27.247s27.247 12.199 27.247 27.247v70.093h70.093c15.048 0 27.247 12.199 27.247 27.247s-12.199 27.247-27.247 27.247z"  horiz-adv-x="1024" />

    
    <glyph glyph-name="cf-c43" unicode="&#58941;" d="M744 475.2c-1.6 6.4-4.8 11.2-8 17.6l-4.8 8c11.2 16 17.6 32 17.6 49.6v100.8c0 14.4-3.2 27.2-11.2 41.6l-1.6 4.8c3.2 8 4.8 14.4 4.8 22.4 0 81.6-176 124.8-340.8 124.8-164.8-0-340.8-43.2-340.8-124.8 0-8 1.6-16 4.8-22.4l-1.6-4.8c-8-14.4-11.2-27.2-11.2-41.6v-100.8c0-17.6 6.4-35.2 17.6-49.6l-4.8-8c-8-14.4-12.8-28.8-12.8-43.2v-100.8c0-17.6 6.4-33.6 16-49.6l-4.8-6.4c-8-14.4-12.8-28.8-12.8-43.2v-100.8c0-89.6 153.6-160 348.8-160 40 0 78.4 3.2 113.6 8-1.6 3.2-4.8 6.4-6.4 9.6 51.2-57.6 126.4-94.4 209.6-94.4 155.2 0 281.6 126.4 281.6 281.6 1.6 147.2-110.4 267.2-252.8 281.6M401.6 787.2c179.2 0 288-44.8 288-76.8s-110.4-76.8-288-76.8c-179.2 0-288 44.8-288 76.8-0 32 110.4 76.8 288 76.8M107.2 635.2c52.8-48 174.4-72 292.8-72s240 24 292.8 72v-83.2c0-57.6-120-121.6-292.8-121.6s-292.8 64-292.8 121.6l0 83.2zM110.4 443.2c54.4-52.8 164.8-86.4 294.4-86.4 30.4 0 59.2 3.2 88 6.4-22.4-30.4-38.4-65.6-46.4-104-1.6-9.6-4.8-20.8-4.8-32-11.2 0-24-1.6-35.2-1.6-172.8 0-294.4 64-294.4 121.6l-1.6 96zM403.2 51.2c-174.4 0-296 52.8-296 102.4v78.4c54.4-43.2 166.4-72 296-72 12.8 0 24 0 36.8 1.6 4.8-28.8 14.4-56 28.8-80 4.8-9.6 11.2-17.6 19.2-25.6-27.2-3.2-54.4-4.8-84.8-4.8M716.8-30.4c-65.6 0-123.2 27.2-164.8 72-9.6 9.6-17.6 20.8-25.6 32-22.4 35.2-35.2 76.8-35.2 121.6 0 0 0 1.6 0 1.6 0 12.8 1.6 25.6 3.2 38.4 1.6 11.2 4.8 22.4 8 33.6 27.2 80 97.6 139.2 184 150.4 9.6 1.6 19.2 1.6 28.8 1.6 3.2 0 4.8 0 8 0 120-4.8 217.6-104 217.6-225.6 1.6-124.8-99.2-225.6-224-225.6M891.2 275.2l-28.8 28.8c-4.8 4.8-14.4 4.8-19.2 0l-156.8-156.8-81.6 81.6c-4.8 4.8-14.4 4.8-19.2 0l-28.8-28.8c-4.8-4.8-4.8-14.4 0-19.2l118.4-120c4.8-4.8 12.8-4.8 19.2 0l196.8 195.2c4.8 6.4 4.8 14.4 0 19.2z"  horiz-adv-x="1024" />

    
    <glyph glyph-name="jiantou-copy-copy" unicode="&#58896;" d="M512 128.097l-512 465.274 51.2 46.528 460.8-418.746 460.8 418.752 51.2-46.528-512-465.28z"  horiz-adv-x="1024" />

    
    <glyph glyph-name="denglu" unicode="&#58883;" d="M425.003112 801.32985c27.030633 11.210319 56.635905 17.378809 87.546915 17.378809 30.949896 0 60.519352-6.16849 87.583754-17.378809l0-0.036839c23.112394-9.578146 44.303019-22.785959 62.768579-38.858006l0.471744 0.433882 11.210319-11.210319c21.0095-21.081131 38.025035-46.297442 49.635467-74.377988 11.17655-27.030633 17.34197-56.636928 17.34197-87.584778 0-30.948873-6.16542-60.555168-17.34197-87.584778-11.610432-28.082592-28.589129-53.335742-49.635467-74.377988l-4.643764-4.607948-0.215918 0c-20.028149-18.902512-43.611264-34.285874-69.660546-45.062312-27.030633-11.210319-56.602136-17.378809-87.514169-17.378809-30.947849 0-60.554144 6.16849-87.583754 17.34197-28.081569 11.610432-53.334719 28.626991-74.379011 49.634444l-11.211343 11.210319 0.400113 0.435928c-16.108886 18.503423-29.313629 39.692001-38.893822 62.804395l0 0.071631c-11.175527 26.993794-17.377786 56.600089-17.377786 87.513146 0 30.912034 6.202259 60.48149 17.377786 87.511099l0 0.073678c11.645225 28.04473 28.66383 53.296857 49.705052 74.341149 21.044292 21.079084 46.297442 38.096666 74.379011 49.706075L425.003112 801.327804 425.003112 801.32985zM406.788262 845.192847c-33.70566-13.932314-64.145949-34.503838-89.687672-60.0824-25.542746-25.541723-46.113247-55.983036-60.084447-89.687672-13.459546-32.473599-20.897959-68.211545-20.897959-105.72595 0-37.515429 7.439436-73.253374 20.897959-105.762789 13.243629-31.999808 32.473599-61.060681 56.236815-85.770456l3.918239-3.918239c6.495948-6.459109 13.424754-12.69923 20.754696-18.721387l0-0.036839c7.074116-5.7694 14.586207-11.319813 22.421662-16.507976l25.142633-16.617469-28.045753-11.138688c-26.811646-10.630105-52.280714-23.945365-76.047-39.58353-23.835871-15.672958-46.149063-33.923624-66.578348-54.349839-38.85596-38.858006-70.169129-85.261872-91.501994-136.710638l-0.034792 0c-20.50194-49.52495-31.819706-103.911628-31.819706-161.0203 0-6.53074 2.648316-12.480242 6.858198-16.761756l0.070608-0.035816c4.282536-4.244674 10.1952-6.892991 16.763802-6.892991 6.528694 0 12.480242 2.648316 16.761756 6.892991l0.034792 0.035816c4.244674 4.281513 6.894014 10.231015 6.894014 16.761756 0 50.504254 10.086729 98.797144 28.336372 142.842289 18.97619 45.860491 46.730301 87.004563 81.125669 121.399931 34.358529 34.357506 75.504648 62.113663 121.326253 81.089853l0 0.035816c44.084031 18.249643 92.373851 28.335349 142.91392 28.335349l0-0.070608 0.945535 0.033769 0.145309 0c37.187971 0.146333 72.672136 7.656377 105.107873 21.189601 31.708166 13.20679 60.519352 32.216749 85.008093 55.729256l4.136204 4.136204c25.542746 25.505907 46.114271 56.019875 60.154032 89.835028 13.462616 32.508391 20.898982 68.173682 20.898982 105.579617s-7.436366 73.108065-20.898982 105.579617c-13.967106 33.742499-34.538631 64.182788-60.045561 89.688695l-4.644787 4.644787 0 0.035816C678.794305 813.121408 649.987213 832.060759 618.274954 845.192847c-32.469506 13.461593-68.208475 20.898982-105.724926 20.898982C475.035622 866.09183 439.296653 858.65444 406.788262 845.192847L406.788262 845.192847zM926.671813-77.236849c-4.243651-4.244674-10.1952-6.892991-16.726963-6.892991-6.566556 0-12.479219 2.648316-16.761756 6.892991l-0.072655 0.035816c-4.244674 4.281513-6.855128 10.231015-6.855128 16.761756 0 33.053814-4.321422 65.163115-12.409634 95.822392-8.3072 31.529087-20.679995 61.460794-36.427654 89.071641-16.072047 28.191062-35.774785 54.168714-58.415434 77.171614-22.674419 23.0029-48.325635 43.137473-76.226079 59.682287-5.659907 3.339048-9.434883 8.634658-10.92277 14.439874-1.484817 5.841032-0.76134 12.335956 2.578732 17.96107 3.338025 5.658883 8.634658 9.431813 14.43885 10.920724 5.841032 1.52268 12.301164 0.760317 17.960047-2.576685 31.492248-18.649755 60.371996-41.326221 85.842087-67.229171 25.50693-25.943882 47.711652-55.222719 65.8518-87.042425 17.814738-31.238468 31.784914-64.979944 41.180911-100.464109 9.069563-34.322713 13.932314-70.459748 13.932314-107.758236 0-6.53074-2.648316-12.480242-6.892991-16.761756L926.671813-77.236849z"  horiz-adv-x="1024" />

    
    <glyph glyph-name="weizhi" unicode="&#58886;" d="M512.001396 896C348.298776 896 215.573558 761.2818 215.573558 595.143461 215.573558 429.005122 512.001396 93.755829 512.001396 93.755829 512.001396 93.755829 808.42593 429.005122 808.42593 595.143461 808.42593 761.2818 675.700713 896 512.001396 896L512.001396 896ZM689.853915 595.143461C689.853915 495.46628 610.230455 414.63021 512.001396 414.63021 413.769034 414.63021 334.144473 495.46628 334.144473 595.143461 334.144473 694.838557 413.769034 775.657833 512.001396 775.657833 610.230455 775.657833 689.853915 694.843035 689.853915 595.143461L689.853915 595.143461ZM215.573558-75.034408a52.4138 9.8276 0 1 0 564.965592 0 52.4138 9.8276 0 1 0-564.965592 0Z"  horiz-adv-x="1024" />

    
    <glyph glyph-name="mima" unicode="&#58919;" d="M500.4 290.9l23.3 0c19.3 0 34.9-15.6 34.9-34.9l0-162.9c0-19.3-15.6-34.9-34.9-34.9l-23.3 0c-19.3 0-34.9 15.6-34.9 34.9L465.5 256C465.5 275.3 481.1 290.9 500.4 290.9zM884.4 407.3l0-419.7c0-25.2-20.9-45.7-46.5-45.7L186.2-58.1c-25.7 0-46.5 20.5-46.5 45.7L139.7 407.3 884.4 407.3M954.2 477.1 69.8 477.1l0-489.6c0-63.8 52.1-115.5 116.4-115.5l651.6 0c64.3 0 116.4 51.7 116.4 115.5L954.2 477.1 954.2 477.1zM861.1 477.1l-69.8 0 0 69.8c0 157-131.1 279.3-279.3 279.3-151.8 0-279.3-127.4-279.3-279.3l0-69.8-69.8 0 0 69.8C162.9 737.3 321.7 896 512 896c188 0 349.1-152.3 349.1-349.1L861.1 477.1z"  horiz-adv-x="1024" />

    
    <glyph glyph-name="star" unicode="&#59187;" d="M1024 493.851388c0 15.180828-11.484233 24.615229-34.469943 28.311824L680.617553 567.078461 542.157967 847.084237c-7.789793 16.821125-17.849274 25.227377-30.154733 25.227377-12.303304 0-22.356318-8.406252-30.152578-25.227377L343.384602 567.078461 34.45701 522.163212C11.488544 518.466617 0 509.032216 0 493.851388c0-8.619641 5.129969-18.465733 15.387751-29.542586l224.002896-217.846934L186.467905-61.226341c-0.821226-5.746427-1.228606-9.86118-1.228606-12.311925 0-8.61533 2.151138-15.894282 6.457726-21.847632 4.304432-5.961972 10.762158-8.92787 19.381799-8.92787 7.38888 0 15.590364 2.450746 24.615229 7.378102l276.302714 145.247096 276.322113-145.247096c8.630418-4.927357 16.834058-7.378102 24.606607-7.378102 8.23166 0 14.473841 2.965898 18.780428 8.92787 4.293655 5.944729 6.446948 13.232302 6.446948 21.847632 0 5.326115-0.206923 9.427935-0.618614 12.311925l-52.927054 307.688209 223.384282 217.846934C1018.673885 474.97612 1024 484.826522 1024 493.851388z"  horiz-adv-x="1025" />

    
    <glyph glyph-name="jiaojie" unicode="&#58986;" d="M253.504 656l0-32c0-19.2 12.8-48 32-48l448 0c19.2 0 32 28.8 32 48l0 32c0 16-16 16-32 16l-96 0L637.504 764.8c0 73.6-57.6 131.2-128 131.2s-128-57.6-128-131.2L381.504 672l-96 0C285.504 672 253.504 672 253.504 656zM509.504 806.4c35.2 0 64-28.8 64-64 0-35.2-28.8-64-64-64-35.2 0-64 28.8-64 64C445.504 777.6 474.304 806.4 509.504 806.4zM829.504 768l-160 0 0-64 160 0c19.2 0 32 0 32-16L861.504-32c0-19.2-12.8-32-32-32l-640 0c-19.2 0-32 12.8-32 32L157.504 688c0 16 12.8 16 32 16l160 0L349.504 768l-160 0c-54.4 0-96-28.8-96-80L93.504-32c0-54.4 41.6-96 96-96l640 0c54.4 0 96 41.6 96 96L925.504 688C925.504 739.2 883.904 768 829.504 768zM664.512 212 250.496 212c-9.6 0-16-3.2-22.4-9.6-12.8-12.8-12.8-32 0-44.8l148.608-148.608c12.8-12.768 32-12.768 44.8 0 12.8 12.8 12.8 32 0 44.8l-94.208 94.176 337.216 0c19.2 0 32 12.8 32 32S683.68 212 664.512 212zM354.496 319.36l414.016 0c9.6 0 16 3.2 22.4 9.6 12.768 12.8 12.768 32 0 44.8l-148.608 148.608c-12.8 12.768-32 12.768-44.8 0-12.8-12.8-12.8-32 0-44.8l94.176-94.176L354.496 383.392c-19.2 0-32-12.8-32-32S335.328 319.36 354.496 319.36z"  horiz-adv-x="1024" />

    
    <glyph glyph-name="anli1" unicode="&#58910;" d="M377.213689 789.247674c-25.482371-0.12689-48.936549-6.084579-67.826781-17.368576-9.508561-5.704932-17.876136-12.80463-24.215518-21.806655-6.338359-8.874111-10.522658-20.031219-10.522658-31.821753l0-281.959743c-116.003014-1.01512-209.821773-95.211479-209.821773-211.597209 0-116.892267 94.704942-211.724099 211.724099-211.724099 42.72508 0 82.533738 12.805654 115.877147 34.611286l468.201471-34.611286 0 86.971817 95.719038 4.183276L956.348716 804.589081 377.213689 789.247674 377.213689 789.247674zM344.75851 194.647421l23.454178-104.08866-91.661629 54.515614-91.663676-54.515614 23.455201 104.08866-80.125899 70.362534 106.242719 9.889231 42.218544 97.875145 42.216497-97.875145 106.242719-9.889231L344.75851 194.647421 344.75851 194.647421zM663.611511 336.894146l-200.059432 14.833847 4.563946 55.910381 200.060455-14.832823L663.611511 336.894146 663.611511 336.894146zM752.612545 470.394672l-346.618369 26.370601 4.689812 55.910381 346.618369-26.370601L752.612545 470.394672 752.612545 470.394672zM903.988184 151.667537l-43.35953-1.901303L860.628654 661.453103 378.862235 697.078485l-1.140986 0c-16.73515 0-31.442106 4.310166-40.316218 9.635451-4.438079 2.662643-7.226588 5.451152-8.621355 7.479345-1.394766 2.155083-1.521656 3.170203-1.648546 4.057409 0 1.014096 0.12689 2.028193 1.648546 4.056386 2.028193 3.043313 7.606235 7.734148 16.35448 11.283997 8.621355 3.549849 20.159132 5.831822 32.583093 5.831822l0.25378 0 526.140045 13.945617 0-601.701998L903.988184 151.666514z"  horiz-adv-x="1024" />

    
    <glyph glyph-name="anquan" unicode="&#58918;" d="M697.5 833.7C610.2 858.2 512 896 512 896s-98.2-37.8-185.5-62.3C239.3 809.2 76.8 807 76.8 807l0-267.1c0 0 21.8-247.1 63.3-322.8 48-140.2 238.8-293.8 371.9-345 133.1 51.2 323.9 204.8 371.9 345 41.5 75.7 63.3 322.8 63.3 322.8L947.2 807C947.2 807 784.7 809.2 697.5 833.7zM837.4 550.9 475.9 186.4c-9.1-9.1-23.8-9.1-32.9 0l-7.3 7.4 0 0-7.9 8-34.1 34.4c-0.2 0.2-0.3 0.5-0.5 0.8L236.9 395.7c-9.1 9.1-9.1 24 0 33.1l49.3 49.7c9.1 9.2 23.8 9.2 32.9 0l140.6-142.8 295.6 298.1c9.1 9.2 23.8 9.2 32.9 0l49.3-49.7C846.5 574.9 846.5 560.1 837.4 550.9z"  horiz-adv-x="1024" />

    
    <glyph glyph-name="fangdajing" unicode="&#58891;" d="M947.509543-2.852403 726.787249 217.869891c55.154992 64.569202 88.411712 148.273808 88.411712 239.653043 0 203.735785-165.77196 369.507745-369.507745 369.507745s-369.507745-165.77196-369.507745-369.507745 165.77196-369.610073 369.507745-369.610073c91.379235 0 175.083841 33.359049 239.653043 88.411712l220.722294-220.722294c5.730389-5.730389 13.20036-8.595583 20.772659-8.595583 7.469971 0 15.04227 2.865194 20.772659 8.595583C958.970321-32.834616 958.970321-14.313181 947.509543-2.852403zM134.817628 457.522934c0 171.40002 139.473569 310.873588 310.873588 310.873588S756.564805 628.922954 756.564805 457.522934c0-171.40002-139.473569-310.873588-310.873588-310.873588S134.817628 286.122914 134.817628 457.522934z"  horiz-adv-x="1024" />

    
    <glyph glyph-name="guzhang" unicode="&#58995;" d="M513.765715 486.003162l191.000102 190.990892c18.008142 17.996886 18.051121 47.307446 0.021489 65.347311-18.159592 18.158568-47.307446 18.028609-65.337077-0.021489L386.266879 489.133456l-4.53427 0.10847c0 0-15.633049-17.036002-25.348318-17.554818-9.716292-0.528026-18.697851 15.201214-18.697851 15.201214l-10.235109 92.595908 0 3.304256c0 25.435299-20.684088 46.196135-46.184879 46.196135-22.044062 0-40.268122-15.22168-44.975331-35.659151l-0.216941 0.011256-30.357402-199.13027L188.917162 236.66028l-47.793516-60.35767c0 0-6.002714-6.024204-5.851265-14.942317 0.150426-8.895601 6.423293-17.879206 6.423293-17.879206l258.065544-262.750239c0 0 6.111185-4.252861 15.999392-3.561106 9.867742 0.668219 19.519566 6.001691 19.519566 6.001691s30.271444 34.719756 47.479361 44.00319c17.20894 9.284457 25.542746-0.905626 82.674954 27.983331 57.153698 28.889981 107.851357 68.38039 107.851357 68.38039l2.072195 2.095731c3.044336 1.877767 5.915733 4.145413 8.549723 6.77838l256.920464 256.933767c18.008142 17.96414 18.051121 47.284933 0.021489 65.336054-18.159592 18.158568-47.307446 18.007119-65.315588-0.021489L759.436974 238.56056c-4.318352-0.949628-22.627347-4.275373-31.4155 4.66423-10.04068 10.17064-4.944616 33.381271-4.944616 33.381271l-1.942235 1.812275 183.767374 183.801143c18.008142 17.986653 18.051121 47.296189 0.042979 65.336054-18.181081 18.159592-47.285956 18.030655-65.337077-0.020466L653.551388 341.467301l-1.209548 1.121544c0 0-27.205619-4.533246-33.230845 6.823406-5.54939 10.538007-0.064468 37.549198 0.777713 41.48995l233.731322 233.708809c17.965164 17.986653 18.051121 47.296189 0 65.336054-18.158568 18.159592-47.286979 18.029632-65.338101-0.010233L549.672506 451.326385l-0.453325 0.388856c0 0-21.331841-3.087315-30.314423 5.699816-8.961092 8.78713-4.641717 28.576849-4.641717 28.576849L513.765715 486.003162zM361.263415 610.65209c-8.809643 23.449062-26.38595 37.742603-26.38595 37.742603L565.499983 879.005954c19.86442 19.853164 52.079122 19.798928 72.0295-0.150426l-6.866385 6.876618c19.951401-19.940145 20.383236-52.564169 0.821715-73.02313L374.391411 543.545716C374.391411 543.545716 370.116037 587.214285 361.263415 610.65209zM730.67593 769.718899c-16.560164 16.798595-44.86686 21.99085-44.86686 21.99085l34.244942 34.256198c18.482957 18.482957 48.278563 18.644639 66.890456 0.031722l-1.532913 1.532913c18.460444-18.460444 18.806321-48.731888 0.906649-67.473741l-34.092469-35.680641C752.225735 724.376201 747.25963 752.919281 730.67593 769.718899zM264.229428 660.0655c0 0 1.813299 58.96802 1.813299 66.567092 0 7.611352-16.47523 36.425607-51.085492 36.425607-34.590819 0-48.560996-25.499767-48.560996-25.499767S122.953821 375.313154 119.693568 366.556723c-3.25002-8.764618-44.564985-53.093219-44.564985-53.093219s-7.232728-6.997368-8.237615-12.394285c-1.00284-5.377474 3.218298-14.57495 3.218298-14.57495l62.108546-61.600987 21.7647 20.750603 4.275373 82.738399 38.476313 276.785907c0 0 11.616572 25.382087 28.112268 38.779212C241.320673 657.344528 264.229428 660.0655 264.229428 660.0655z"  horiz-adv-x="1024" />

    
    <glyph glyph-name="location" unicode="&#58928;" d="M857.022 364.068c-16.95 9.526-38.382 3.642-47.908-13.168-39.783-70.181-224.131-304.398-294.172-392.79-71.442 88.112-260.273 322.889-300.056 392.93-9.526 16.95-31.098 23.114-47.908 13.448-16.95-9.526-22.833-30.538-13.168-47.348 51.97-91.614 322.749-421.367 334.236-435.375 6.724-8.125 16.67-10.646 27.176-10.646 0 0 0.14 0 0.14 0 10.646 0 20.592 2.662 27.316 10.926 11.207 14.008 275.682 342.501 327.512 433.974 9.666 16.95 3.782 38.382-13.168 48.048v0zM512 874.667c-225.112 0-408.199-169.359-408.199-377.381 0-18.211 1.681-37.122 4.903-55.893 3.222-19.191 21.433-31.939 40.624-28.717 19.191 3.362 31.939 21.433 28.717 40.624-2.521 14.989-3.922 29.837-3.922 43.986 0 169.359 151.569 307.060 337.878 307.060 186.309 0 337.878-137.841 337.878-307.060 0-14.428-1.261-29.277-3.922-44.406-3.362-19.191 9.526-37.262 28.577-40.624 1.961-0.42 4.062-0.56 6.024-0.56 16.81 0 31.659 12.047 34.6 29.137 3.362 19.051 5.043 38.102 5.043 56.453 0 208.022-183.087 377.381-408.199 377.381v0zM374.72 528.664c0-75.818 61.463-137.28 137.28-137.28 75.818 0 137.28 61.463 137.28 137.28 0 75.818-61.463 137.28-137.28 137.28-75.818 0-137.28-61.463-137.28-137.28z"  horiz-adv-x="1024" />

    
    <glyph glyph-name="anli" unicode="&#59349;" d="M252.80882 690.836317 107.842147 690.836317c-25.140587 0-45.709041-20.568455-45.709041-45.705971l0-58.087976 236.381685 0 0 58.087976C298.514791 670.267862 277.946336 690.836317 252.80882 690.836317zM62.133106 510.387525l236.381685 0 0-288.046369-236.381685 0 0 288.046369ZM62.133106 176.635185l236.381685 0 0-45.705971-236.381685 0 0 45.705971ZM62.133106 44.751482c0-25.242917 20.463054-45.705971 45.709041-45.705971l144.966673 0c25.242917 0 45.705971 20.463054 45.705971 45.705971l0 40.47176L62.133106 85.223243 62.133106 44.751482zM508.09404 821.765275 395.255089 821.765275c-25.137517 0-45.705971-20.568455-45.705971-45.705971l0-39.041178 204.251917 0 0 39.041178C553.800012 801.195797 533.234627 821.765275 508.09404 821.765275zM349.549118 44.751482c0-25.137517 20.568455-45.705971 45.705971-45.705971l112.838951 0c25.140587 0 45.705971 20.568455 45.705971 45.705971L553.800012 691.312154l-204.251917 0L349.548094 44.751482zM959.617667 82.661907l-13.678534 51.048653L735.317135 77.832925l13.678534-51.045583c6.505158-24.282033 31.697933-38.827307 55.979966-32.320103l122.325 32.217772C951.579597 33.190169 966.124871 58.382944 959.617667 82.661907zM821.72818 597.277478c-6.505158 24.282033-31.697933 38.824237-55.979966 32.320103l-122.325-32.217772c-24.278963-6.505158-38.824237-31.697933-32.317033-55.979966l100.55109-375.266849 210.625068 55.874565L821.72818 597.277478z"  horiz-adv-x="1024" />

    
    <glyph glyph-name="mima1" unicode="&#58911;" d="M814.953382-64.358541 201.825147-64.358541c-52.04433 0-94.326319 42.303478-94.326319 94.304829L107.498828 312.904779c0 52.045353 42.281989 94.349855 94.326319 94.349855l613.127212 0c52.046377 0 94.349855-42.303478 94.349855-94.349855l0-282.95849C909.303236-22.055063 866.999758-64.358541 814.953382-64.358541L814.953382-64.358541zM862.116541 312.904779c0 26.000164-21.166065 47.174416-47.164183 47.174416L201.825147 360.079194c-25.999141 0-47.162136-21.173229-47.162136-47.174416l0-282.95849c0-26.024723 21.164019-47.187719 47.162136-47.187719l613.127212 0c25.998117 0 47.164183 21.164019 47.164183 47.187719L862.116541 312.904779 862.116541 312.904779zM791.39278 501.593232c-13.057387 0-23.603581 10.513448-23.603581 23.559579 0 143.032624-116.3888 259.410168-259.422448 259.410168-143.03467 0-259.377422-116.377544-259.377422-259.410168l0-141.469012c0-13.046131-10.547217-23.604604-23.581068-23.604604-13.059434 0-23.583115 10.558473-23.583115 23.604604L201.825147 525.15281c0 169.078837 137.50677 306.574351 306.541605 306.574351 169.033811 0 306.58663-137.495514 306.58663-306.574351C814.953382 512.10668 804.381605 501.593232 791.39278 501.593232L791.39278 501.593232zM508.366751 171.43679c-26.046213 0-47.117111 21.140483-47.117111 47.163159 0 26.069749 21.070898 47.187719 47.117111 47.187719 26.091238 0 47.164183-21.118993 47.164183-47.187719C555.530934 192.577273 534.457989 171.43679 508.366751 171.43679L508.366751 171.43679zM508.366751 77.109448c-12.988826 0-23.559579 10.54824-23.559579 23.604604l0 94.304829c0 13.032828 10.570753 23.581068 23.559579 23.581068 13.057387 0 23.604604-10.54824 23.604604-23.581068l0-94.304829C531.971355 87.656665 521.424138 77.109448 508.366751 77.109448L508.366751 77.109448z"  horiz-adv-x="1024" />

    
    <glyph glyph-name="zhuisu" unicode="&#58893;" d="M511.900228-59.723987c-46.127574 0-90.88801 9.039887-133.040039 26.868951-40.699957 17.214057-77.248362 41.853224-108.627023 73.232908-31.379685 31.378661-56.018851 67.927065-73.232908 108.627023-17.828041 42.151006-26.867928 86.912465-26.867928 133.039016 0 46.127574 9.039887 90.88801 26.867928 133.040039 17.21508 40.699957 41.854247 77.248362 73.232908 108.627023s67.927065 56.018851 108.627023 73.232908c42.151006 17.828041 86.912465 26.867928 133.040039 26.867928 46.12655 0 90.886987-9.039887 133.039016-26.867928 40.699957-17.21508 77.248362-41.854247 108.627023-73.232908 31.379685-31.379685 56.018851-67.927065 73.232908-108.627023 17.829064-42.151006 26.868951-86.912465 26.868951-133.040039 0-46.12655-9.039887-90.886987-26.868951-133.039016-17.214057-40.699957-41.853224-77.248362-73.232908-108.627023-31.378661-31.379685-67.927065-56.018851-108.627023-73.232908C602.788238-50.6841 558.026778-59.723987 511.900228-59.723987zM511.900228 572.647521c-160.239518 0-290.603611-130.364093-290.603611-290.603611s130.364093-290.602587 290.603611-290.602587S802.503838 121.804393 802.503838 282.04391 672.139745 572.647521 511.900228 572.647521zM486.317573 729.93787l51.16531 0 0-114.475218-51.16531 0 0 114.475218ZM611.667465 747.720885c0-16.954137-13.745049-30.699186-30.699186-30.699186L442.832176 717.021699c-16.954137 0-30.699186 13.745049-30.699186 30.699186l0 16.880459c0 16.954137 13.745049 30.699186 30.699186 30.699186l138.137127 0c16.954137 0 30.699186-13.745049 30.699186-30.699186L611.668489 747.720885zM783.830547 627.136529m-39.139415 0a38.248 38.248 0 1 0 78.278831 0 38.248 38.248 0 1 0-78.278831 0ZM780.273754 634.460306l14.471596-14.471596-75.463586-75.463586-14.471596 14.471596 75.463586 75.463586ZM486.118028 449.054645l51.16531 0 0-194.807824-51.16531 0 0 194.807824ZM486.143611 278.813333l218.694861 0 0-51.16531-218.694861 0 0 51.16531Z"  horiz-adv-x="1024" />

    
    <glyph glyph-name="hahahaha" unicode="&#58908;" d="M512 896c-281.6 0-512-230.4-512-512s230.4-512 512-512 512 230.4 512 512-230.4 512-512 512zM512-54.857c-241.371 0-438.857 197.486-438.857 438.857s197.486 438.857 438.857 438.857 438.857-197.486 438.857-438.857-197.486-438.857-438.857-438.857zM512 731.429c0-10.099 8.187-18.286 18.286-18.286s18.286 8.187 18.286 18.286c-0 10.099-8.187 18.286-18.286 18.286-10.099 0-18.286-8.187-18.286-18.286zM512 36.571c0-10.099 8.187-18.286 18.286-18.286s18.286 8.187 18.286 18.286c-0 10.099-8.187 18.286-18.286 18.286-10.099 0-18.286-8.187-18.286-18.286zM146.286 402.286c0-10.099 8.187-18.286 18.286-18.286s18.286 8.187 18.286 18.286c0 10.099-8.187 18.286-18.286 18.286-10.099 0-18.286-8.187-18.286-18.286zM841.143 402.286c0-10.099 8.187-18.286 18.286-18.286s18.286 8.187 18.286 18.286c0 10.099-8.187 18.286-18.286 18.286-10.099 0-18.286-8.187-18.286-18.286zM512 603.429h36.571v-256h-36.571v256zM548.571 384h182.857v-36.571h-182.857v36.571z"  horiz-adv-x="1024" />

    
    <glyph glyph-name="youshiduibi" unicode="&#59110;" d="M43.9808 294.3488l71.9872 0c12.4928-0.3584 24.8832 5.2224 31.9488 15.7184l77.1584 114.432 110.1312-228.9664c4.6592-9.7792 13.7728-16.4352 24.1664-18.944 18.8416-4.8128 38.6048 5.12 44.3392 22.5792l148.8384 450.9184 108.4416-328.8576c3.4304-15.4624 17.92-26.9312 35.4816-26.9312l181.3504 0c3.1232 0 6.0928 0.3584 9.0624 1.0752 12.3392-20.6848 36.096-34.7136 63.4368-34.7136 40.0896 0 72.4992 30.0544 72.4992 67.2256 0 37.1712-32.4096 67.2768-72.4992 67.2768-27.2896 0-51.0464-14.0288-63.4368-34.7136-2.9696 0.7168-5.9392 1.0752-9.0624 1.0752l-154.2144 0-136.2432 412.9792c-5.8368 17.7152-26.0608 27.7504-45.2096 22.272-6.6048-1.8944-12.3392-5.4784-16.5888-9.984-3.584-3.4816-6.2464-7.7824-7.8848-12.6976l-155.0336-470.2208L264.4992 508.0064c-1.7408 4.1472-4.2496 8.0896-7.8336 11.3664-0.1024 0.2048-0.3584 0.3584-0.512 0.4608l-0.6656 0.6656c-10.24 9.0112-25.9072 12.0832-39.7824 6.2976-7.8336-3.2256-13.8752-8.7552-17.4592-15.36l-101.12-149.8112L43.9808 361.6256c-20.0192 0-36.2496-15.0528-36.2496-33.6384C7.7312 309.4016 24.0128 294.3488 43.9808 294.3488zM997.4784 19.1488 699.904 19.1488l-160.4608 179.3024-172.7488-116.7872-177.3568 181.9136-94.8736-232.7552L14.4896 30.8224c-8.0384 0-14.4896-6.5536-14.4896-14.5408 0-8.0384 6.5024-14.592 14.4896-14.592l99.4816 0 85.504 209.8688 163.3792-167.5264 171.8784 116.1728 152.2176-170.1376 310.528 0c8.0384 0 14.4896 6.5024 14.4896 14.592C1012.0192 12.6464 1005.5168 19.1488 997.4784 19.1488z"  horiz-adv-x="1024" />

    
    <glyph glyph-name="tuiguang" unicode="&#59107;" d="M829.44 88.576l-377.856 114.944 337.408 391.936-435.2-364.032L0 336.896 1024 825.088l-194.56-736.512z m-389.888-145.664v202.752l124.416-35.328-124.416-167.424z"  horiz-adv-x="1024" />

    
    <glyph glyph-name="anquan1" unicode="&#58932;" d="M511.959579-49.722192c-127.183657 0-363.723955 193.59316-363.723955 376.640126V691.582307l36.165688 0.588401c0.76441 0 81.507362 1.707898 164.804486 35.34602 85.439928 34.525328 140.550083 74.17742 141.067876 74.559113 0 0 14.927991 15.634072 21.595854 15.646351 6.701632 0.01228 21.765723-15.646352 21.765723-15.646351 0.51984-0.381693 55.627948-40.033785 141.069923-74.559113 83.304288-33.638121 164.039054-35.346019 164.894537-35.34602l35.994796-0.588401 0.170892-364.664373c0-183.046966-236.542344-376.640126-363.80582-376.640126m-290.271036 671.391196v-294.752094c0-141.525294 206.01712-303.566854 290.271036-303.566853 84.245729 0 290.271036 162.042583 290.271037 303.566853V621.669004c-35.995819 3.880377-94.439906 13.635555-155.125034 38.146809-62.21497 25.15389-109.440551 52.521191-135.148049 68.806085-25.631774-16.284895-72.938196-43.652196-135.071302-68.806085-60.759829-24.511253-119.210056-34.266431-155.197688-38.146809m270.813892-431.764607L338.063017 320.78219l47.479361 55.593156 99.07753-83.905992 188.03763 215.509308 55.527664-47.916312-235.682767-270.157953m0 0"  horiz-adv-x="1024" />

    
    <glyph glyph-name="diannao" unicode="&#59786;" d="M858.880847 182.109874H617.906563v28.652573h240.974284c12.413727 0 22.512736 10.099009 22.512736 22.512736V675.317878c0 12.413727-10.099009 22.512736-22.512736 22.512737H165.11813c-12.413727 0-22.512736-10.099009-22.512736-22.512737v-442.042695c0-12.413727 10.099009-22.512736 22.512736-22.512736H406.092413v-28.652573H165.11813c-28.212552 0-51.16531 22.952758-51.16531 51.165309V675.317878c0 28.212552 22.952758 51.16531 51.16531 51.16531h693.762717c28.212552 0 51.16531-22.952758 51.16531-51.16531v-442.042695c0-28.212552-22.951735-51.16531-51.16531-51.165309zM488.976122 210.762447h46.046733v-28.652573h-46.046733zM65.584206 78.251458h892.830565v-28.652574H65.584206z"  horiz-adv-x="1024" />

    
    <glyph glyph-name="tuoguan" unicode="&#58892;" d="M967.942331 407.309309H390.902199a51.59501 51.59501 0 0 0-51.50641 51.535943V844.464057A51.580244 51.580244 0 0 0 390.902199 896h577.040132a51.609777 51.609777 0 0 0 51.55071-51.535943v-385.604038a51.624544 51.624544 0 0 0-51.55071-51.55071zM390.902199 857.163458a12.802769 12.802769 0 0 1-12.581268-12.699401v-385.604038c0-6.89607 5.773798-12.699402 12.581268-12.699402h577.040132a12.832302 12.832302 0 0 1 12.625568 12.699402V844.464057a12.817536 12.817536 0 0 1-12.625568 12.699401H390.902199z m-10.646824-112.448771v38.836542H981.365303v-38.836542H380.255375z m478.664071-134.082053H461.900713a19.418271 19.418271 0 1 0 0 38.836542h397.003966a19.433038 19.433038 0 1 0 0.014767-38.836542z m-93.473502-64.973682H461.900713a19.418271 19.418271 0 1 0 0 38.836542h303.530464a19.433038 19.433038 0 1 0 0.014767-38.836542z m-528.354172-673.658952c-10.942159 0-27.554748 3.529252-44.477438 20.259975-14.633845 14.412344-91.834393 86.429764-136.046031 127.658519l-30.40473 28.41122c-10.454856 9.967554-27.628582 29.917427-25.930406 52.22998 0.67927 8.490879 4.326657 20.599611 18.163097 30.153696 13.57064 9.288283 62.729137 47.593222 74.734502 57.235907 21.707117 17.173726 52.835417 16.302488 74.350566-3.381585 7.723008-6.940371 41.701291-37.1679 78.455721-69.831942 46.219915-41.110621 96.781253-86.060596 105.3755-93.946038 16.007153-14.530478 18.620867-29.311991 17.985896-39.146643-0.649737-10.085688-5.478463-25.000101-24.749066-38.452607-18.620867-13.127637-46.943485-37.094066-63.866176-51.432576l-6.541669-5.53753c-10.971692-9.288283-23.774461-14.220376-37.049766-14.220376zM128.452822 161.620189c-3.795054 0-7.796842-1.476675-11.030759-4.016555-10.720658-8.609013-61.503497-48.316793-76.934747-58.860249-1.786776-3.455419 2.008277-12.285933 12.463134-22.268253l30.183229-28.174952c44.477439-41.450256 122.106223-113.895912 136.887735-128.455923 6.645036-6.556435 18.473199-12.788002 29.001889-3.942721l6.467835 5.463696c17.409994 14.751979 46.55955 39.486279 66.671858 53.588521 6.379234 4.474324 8.210311 7.885442 8.284145 9.214449 0.073834 1.063206-0.989372 3.987021-5.389863 8.003577-8.62378 7.885442-58.99315 52.643449-105.035864 93.562102a22282.429014 22282.429014 0 0 0-78.721523 70.127277c-4.223289 3.824587-8.520412 5.759031-12.847069 5.759031z m258.639556-166.170193a19.492105 19.492105 0 0 0-12.965203 4.932094l-189.605018 168.739606a19.314904 19.314904 0 0 0-5.891932 9.716519l-4.828726 18.960502a19.300137 19.300137 0 0 0 5.699964 19.078635c5.507996 5.050227 136.046031 123.907766 230.819007 130.360834 67.66123 4.252823 234.850328-4.592458 337.936981-10.129988 34.21455-1.86061 61.577331-3.337285 76.107809-3.824587 45.127176-1.624342 66.642325-27.082212 67.557863-50.059269 0.797404-20.791578-14.943947-43.650501-51.934646-47.903324-28.160185-3.219151-83.594549-7.132338-134.761323-10.735424-44.06397-3.071483-98.878131-6.89607-106.73404-8.653313a16.095753 16.095753 0 0 1-3.425886-3.027183c2.997649-0.118134 13.378672-5.124061 41.051554-7.693475 47.253587-4.518624 183.078117-16.391088 228.234826-10.587757 23.228091 2.953349 90.933622 53.824789 131.335439 84.229519 23.803995 17.867763 44.329771 33.299012 57.546009 41.228755 14.751979 8.919115 39.604413 18.399365 65.003216 18.399366 25.472637 0 45.998414-9.93802 57.782277-28.027284 15.209748-23.818761-19.536405-60.942361-34.214551-73.272594C980.626966 103.040508 878.559218 35.453111 826.447371 27.818704c-37.478001-5.58183-124.527969-1.81631-198.967135 2.126411-39.604413 2.082111-76.255476 4.060855-101.462312 4.060855-15.844718 0-22.164886-0.797404-24.512798-1.284707-35.041488-7.324306-78.913491-32.427774-79.37126-32.649275-2.510347-1.476675-5.316029-2.318379-8.21031-2.53988l-25.310203-1.978744a12.935669 12.935669 0 0 0-1.520975-0.103368zM214.897353 194.15133l178.972962-159.288889 12.773235 1.018906c12.507434 6.866537 52.038013 27.569515 86.976134 34.819987 18.591333 3.913188 71.736852 1.402841 135.927896-1.978744 71.766385-3.795054 157.753147-7.39814 191.288428-2.466047 24.8672 3.603086 95.939549 34.17025 292.706439 197.94823 14.057942 11.79863 22.268253 23.242858 25.767971 29.622093-13.452506 10.61729-49.424299 2.997649-65.992587-6.984671-11.473762-6.940371-32.235806-22.534054-54.208725-39.02851-65.918754-49.571966-118.798471-87.803072-149.808638-91.745793-47.475088-5.950999-187.892076 5.803331-236.829072 10.425323-18.251698 1.712943-73.745129 6.940371-76.979047 43.458534-1.90491 21.574216 18.251698 39.412445 32.915077 43.458533 8.446579 2.318379 37.980071 4.548158 114.073113 9.89372 50.517038 3.529252 105.257365 7.353839 133.048381 10.587757 13.452506 1.520975 17.528127 6.482601 17.454294 7.782075-0.118134 3.455419-8.933881 12.020131-29.961728 12.743702-14.633845 0.487303-42.306727 2.008277-76.905213 3.868887-101.757647 5.53753-267.189502 14.530478-333.182089 10.159521-62.537169-4.252823-157.369212-76.609878-198.509367-112.537371l0.472536-1.757243z"  horiz-adv-x="1179" />

    
    <glyph glyph-name="chengben" unicode="&#58996;" d="M882.688 242.95424h-169.12384V453.38624a15.9744 15.9744 0 0 1-15.95392 15.9744h-185.05728a15.9744 15.9744 0 0 1-15.9744-15.9744v-91.9552h-154.25536V610.18112a15.9744 15.9744 0 0 1-15.9744 15.9744H141.33248a15.9744 15.9744 0 0 1-15.9744-15.9744V0.6144c0-8.84736 7.14752-15.9744 15.9744-15.9744h185.01632c0.22528 0 0.4096 0.12288 0.6144 0.12288s0.4096-0.12288 0.6144-0.12288H882.688a15.95392 15.95392 0 0 1 15.95392 15.9744V226.97984a15.95392 15.95392 0 0 1-15.95392 15.9744zM310.3744 16.60928H157.30688V594.20672h153.06752v-577.59744z m33.1776 312.87296h153.02656v-312.87296h-153.02656V329.48224z m184.97536 15.9744v91.9552h153.10848v-420.80256h-153.10848V345.45664z m338.16576-328.84736h-153.14944v194.41664h153.14944v-194.41664zM219.50464 753.9712l242.09408-157.20448c5.44768-3.52256 12.4928-3.42016 17.83808 0.28672l125.07136 87.10144 220.7744-174.01856h-64.32768a15.9744 15.9744 0 1 1 0-31.9488h106.3936a15.9744 15.9744 0 0 1 15.81056 18.2272l-14.4384 101.82656a15.9744 15.9744 0 0 1-31.6416-4.48512l8.35584-58.81856-230.46144 181.6576a15.9744 15.9744 0 0 1-19.02592 0.57344l-125.97248-87.73632-233.08288 151.36768a15.9744 15.9744 0 0 1-17.38752-26.8288z"  horiz-adv-x="1024" />

    
    <glyph glyph-name="chengben1" unicode="&#58951;" d="M685.568 817.152c-143.36 0-273.92-43.52-273.92-105.984v-186.88H349.184C206.336 530.944 81.92 487.424 81.92 431.104v-392.192c0-55.808 124.416-93.184 267.776-93.184 149.504 0 267.776 37.376 267.776 87.04v37.376h62.464c149.504 0 267.776 37.376 267.776 87.04V711.168c-0.512 46.592-77.824 105.984-262.144 105.984z m-118.272-579.072c-12.288-25.088-87.04-62.464-211.456-62.464s-205.312 37.376-211.456 62.464V337.92c49.664-31.232 130.56-43.52 211.456-43.52 80.896 0 161.792 12.288 211.456 43.52v-99.84zM349.696 474.624c124.416 0 199.168-37.376 211.456-49.664v-18.432c-12.288-25.088-87.04-62.464-211.456-62.464S144.384 381.44 138.24 406.528V424.96c12.288 18.944 87.04 49.664 211.456 49.664z m0-473.088c-118.272 0-193.024 25.088-211.456 43.52v124.416c49.664-31.232 130.56-43.52 211.456-43.52s161.792 12.288 211.456 43.52v-124.416c-12.288-18.432-93.184-43.52-211.456-43.52z m544.256 168.448c-18.432-18.432-89.6-43.52-207.872-43.52h-62.464V250.88c18.432 0 43.52-6.144 62.464-6.144 80.896 0 158.208 12.288 207.872 43.52v-118.272z m0 199.168c-12.288-25.088-83.456-62.464-207.872-62.464-25.088 0-43.52 0-62.464 6.144V418.816c18.432 0 43.52-6.144 62.464-6.144 80.896 0 158.208 12.288 207.872 43.52v-87.04z m-208.384 99.328c-37.376 0-68.608 0-93.184 6.144-25.088 18.432-62.464 31.232-112.128 43.52l-12.288 12.288v87.04c49.664-31.232 130.56-43.52 211.456-43.52 80.896 0 161.792 12.288 211.456 43.52v-87.04c0.512 0.512-30.72-61.952-205.312-61.952z m211.968 224.256c-12.288-25.088-87.04-62.464-211.456-62.464-124.416 0-205.312 37.376-211.456 62.464v18.432c12.288 18.432 87.04 49.664 211.456 49.664 124.416 0 199.168-37.376 211.456-49.664v-18.432z"  horiz-adv-x="1024" />

    
    <glyph glyph-name="saoma" unicode="&#58887;" d="M134.981818 183.854545H65.163636v-200.145454c0-18.618182 13.963636-37.236364 37.236364-37.236364h228.072727v69.818182H134.981818v167.563636zM134.981818 751.709091h195.490909V821.527273H102.4c-23.272727 0-37.236364-18.618182-37.236364-37.236364v-209.454545h69.818182V751.709091zM889.018182 16.290909h-195.490909v-69.818182h228.072727c18.618182 0 37.236364 13.963636 37.236364 37.236364v200.145454h-69.818182v-167.563636zM889.018182 579.490909h69.818182V784.290909c0 18.618182-13.963636 37.236364-37.236364 37.236364h-228.072727v-69.818182h195.490909v-172.218182zM46.545455 421.236364h930.90909v-69.818182H46.545455z"  horiz-adv-x="1024" />

    
    <glyph glyph-name="yonghuming" unicode="&#58934;" d="M907-16.2c0-19.8-16.1-35.6-35.6-35.6-19.8 0-35.6 16.1-35.6 35.6l-0.3 3.5c0 1.4 0.3 2.9 0.3 4C813.3 148 679 263 515.5 265c-1.4 0-2.6-0.3-4-0.3s-2.6 0.3-3.7 0.3C346.1 263.3 213 150.6 188.3-3.2c0.9-3.2 1.4-6 1.4-9.5l0.3-3.5c0-20.1-16.1-36.2-36.2-36.2s-36.2 16.1-36.2 36.2v0.3h-0.6c0 1.1 0.3 2 0.3 3.2 0 2.9 0.6 5.7 1.1 8.6 18.7 144.3 115.3 261.3 247.2 311.6-76.8 49.2-126.8 136-126.8 235.2 0 153.5 119.3 277.7 272.5 277.7 153.5 0 272.5-124.5 272.5-277.7 0-99.2-50-186-126.8-235.2 130.8-50 227.1-165.3 246.9-308.2 1.4-3.7 2.3-7.8 2.3-12.1l0.8-3.4zM721.6 542.7c0 116.1-94 210.1-210.1 210.1s-210.1-94-210.1-210.1c0-115.9 94-210.1 210.1-210.1s210.1 94 210.1 210.1z"  horiz-adv-x="1024" />

    
    <glyph glyph-name="youshi" unicode="&#59663;" d="M526.383592 851.225237c-96.774067-74.518181-200.944592-126.398782-379.38668-126.398781v-327.506079c0-156.185178 200.835098-431.927313 379.38668-431.927313 178.578188 0 379.275139 275.741112 379.275139 431.927313V724.826456c-178.551582 0-282.609543 51.880601-379.275139 126.398781z m120.966049-498.486218c-4.612041-4.719488-6.746658-11.380188-5.679349-17.919115l24.804942-153.857157-129.97012 72.083735c-6.261611 3.504824-13.905708 3.504824-20.188808 0.042979l-130.265856-71.669296 25.329898 153.799852a20.932752 20.932752 0 0 1-5.63637 17.936511L297.844525 464.146365l147.609873 21.24486a20.809955 20.809955 0 0 1 4.204765 1.190105 20.788465 20.788465 0 0 1 12.112876 10.833743l65.299215 138.240481 64.733326-138.597615a20.916379 20.916379 0 0 1 15.74459-11.794628L754.812141 462.541821 647.349641 352.739019z"  horiz-adv-x="1024" />

    
    <glyph glyph-name="guanli" unicode="&#59547;" d="M368.64 141.653333H109.226667c-30.72 0-54.613333 23.893333-54.613334 54.613334V247.466667c0 17.066667 6.826667 34.133333 23.893334 44.373333 6.826667 6.826667 17.066667 10.24 23.893333 13.653333l180.906667 98.986667 17.066666 23.893333-17.066666-20.48c-64.853333 51.2-88.746667 153.6-88.746667 208.213334V732.16C197.973333 814.08 303.786667 896 406.186667 896S614.4 810.666667 614.4 732.16v-119.466667c0-13.653333-3.413333-146.773333-81.92-208.213333 0-13.653333-10.24-27.306667-23.893333-30.72-13.653333 0-27.306667 10.24-30.72 23.893333 0 20.48 6.826667 37.546667 20.48 47.786667 47.786667 37.546667 61.44 126.293333 61.44 167.253333V732.16c0 40.96-71.68 109.226667-153.6 109.226667s-157.013333-68.266667-157.013334-109.226667v-119.466667c0-47.786667 20.48-129.706667 68.266667-167.253333 13.653333-10.24 23.893333-30.72 20.48-47.786667-3.413333-20.48-13.653333-34.133333-30.72-44.373333l-184.32-98.986667c-6.826667-3.413333-10.24-6.826667-17.066667-10.24v-51.2h259.413334c13.653333 0 27.306667-13.653333 27.306666-27.306666s-10.24-23.893333-23.893333-23.893334z m406.186667-218.453333l6.826666 23.893333h3.413334l20.48-13.653333c23.893333-17.066667 58.026667-13.653333 78.506666 3.413333l20.48 20.48c20.48 20.48 20.48 51.2 3.413334 75.093334l-13.653334 23.893333 23.893334 6.826667c30.72 6.826667 51.2 30.72 51.2 58.026666v30.72c0 30.72-27.306667 54.613333-51.2 58.026667l-23.893334 6.826667v3.413333l13.653334 23.893333c17.066667 27.306667 13.653333 58.026667-3.413334 75.093334l-20.48 20.48c-20.48 20.48-54.613333 20.48-78.506666 3.413333l-20.48-13.653333h-3.413334l-6.826666 23.893333c-3.413333 23.893333-27.306667 51.2-58.026667 51.2h-30.72c-27.306667 0-51.2-20.48-58.026667-51.2l-6.826666-23.893333s-3.413333 0-3.413334-3.413334l-20.48 13.653334c-23.893333 17.066667-58.026667 13.653333-78.506666-3.413334l-20.48-20.48c-20.48-20.48-20.48-51.2-3.413334-75.093333l13.653334-23.893333-27.306667-3.413334c-23.893333-3.413333-51.2-27.306667-51.2-58.026666v-30.72c0-27.306667 20.48-51.2 51.2-58.026667l23.893333-6.826667-13.653333-23.893333c-17.066667-27.306667-13.653333-58.026667 3.413333-75.093333l20.48-20.48c20.48-20.48 54.613333-20.48 78.506667-3.413334l23.893333 13.653334c3.413333 0 3.413333 0 6.826667-3.413334l6.826667-23.893333c6.826667-30.72 30.72-51.2 58.026666-51.2h27.306667c30.72 0 51.2 27.306667 58.026667 51.2z m-174.08 81.92l-37.546667-23.893333s-3.413333-3.413333-10.24 0l-20.48 20.48s0 6.826667 3.413333 10.24l20.48 37.546666c3.413333 6.826667 3.413333 17.066667 0 27.306667-3.413333 6.826667-6.826667 13.653333-6.826666 20.48-3.413333 10.24-10.24 17.066667-20.48 17.066667l-40.96 10.24c-6.826667 0-10.24 3.413333-10.24 3.413333v30.72s3.413333 3.413333 10.24 6.826667l37.546666 10.24c10.24 3.413333 17.066667 10.24 20.48 17.066666 3.413333 6.826667 3.413333 13.653333 10.24 20.48 3.413333 6.826667 3.413333 17.066667 0 27.306667l-23.893333 37.546667c-3.413333 3.413333-3.413333 10.24-3.413333 10.24l23.893333 20.48c3.413333 0 6.826667 0 6.826667-3.413334l34.133333-23.893333c6.826667-6.826667 17.066667-6.826667 27.306667 0 6.826667 3.413333 17.066667 6.826667 23.893333 10.24 10.24 3.413333 17.066667 10.24 17.066667 20.48l10.24 40.96c0 6.826667 3.413333 10.24 3.413333 10.24h30.72s3.413333-3.413333 6.826667-10.24l10.24-40.96c3.413333-10.24 10.24-17.066667 17.066666-20.48 6.826667-3.413333 17.066667-6.826667 23.893334-10.24 6.826667-3.413333 20.48-3.413333 27.306666 0l34.133334 23.893333s3.413333 3.413333 10.24 3.413334l20.48-20.48s0-6.826667-3.413334-10.24l-20.48-34.133334c-3.413333-6.826667-6.826667-17.066667 0-27.306666 3.413333-6.826667 6.826667-17.066667 10.24-23.893334 3.413333-10.24 10.24-17.066667 20.48-17.066666l40.96-10.24c3.413333 0 6.826667-3.413333 6.826667-6.826667v-30.72s-3.413333-3.413333-10.24-3.413333l-34.133333-13.653334c-10.24-3.413333-17.066667-10.24-20.48-17.066666l-10.24-20.48c-3.413333-6.826667-3.413333-17.066667 0-27.306667l20.48-34.133333c3.413333-3.413333 3.413333-10.24 3.413333-10.24l-23.893333-20.48c-3.413333 0-6.826667 0-6.826667 3.413333l-34.133333 20.48c-6.826667 6.826667-17.066667 6.826667-27.306667 0-6.826667-3.413333-17.066667-6.826667-23.893333-10.24-10.24-3.413333-17.066667-10.24-17.066667-20.48l-10.24-40.96c0-3.413333-3.413333-6.826667-6.826667-6.826667h-30.72s-3.413333 3.413333-3.413333 10.24l-3.413333 37.546667c-3.413333 10.24-10.24 17.066667-17.066667 20.48-6.826667 3.413333-17.066667 6.826667-23.893333 10.24-6.826667 3.413333-13.653333 3.413333-17.066667 3.413333-3.413333 0-10.24-3.413333-13.653333-3.413333z m218.453333 136.533333c0 64.853333-54.613333 119.466667-119.466667 119.466667S580.266667 206.506667 580.266667 141.653333s54.613333-119.466667 119.466666-119.466666S819.2 76.8 819.2 141.653333z m-54.613333 0c0-34.133333-27.306667-64.853333-64.853334-64.853333-34.133333 0-64.853333 27.306667-64.853333 64.853333 0 34.133333 30.72 64.853333 64.853333 64.853334 34.133333 0 64.853333-27.306667 64.853334-64.853334z"  horiz-adv-x="1024" />

    
    <glyph glyph-name="saoma1" unicode="&#59009;" d="M0 425.6h470.4V896H0v-470.4z m86.4 384H384V512H86.4V809.6zM0-128h470.4V342.4H0V-128z m86.4 384H384v-297.6H86.4V256zM937.6 169.6h-83.2v172.8h-300.8V-128H640v297.6h86.4v-83.2H1024v256h-86.4zM553.6 896v-470.4H1024V896H553.6z m384-384H640V809.6h297.6V512zM214.4 726.4H169.6v-128h128v128H256zM809.6 598.4h44.8v128h-128v-128H768zM214.4 169.6H169.6v-128h128v128H256zM896 0v-128h128v128h-86.4zM726.4 0h128v-128h-128z"  horiz-adv-x="1024" />

    
    <glyph glyph-name="chengbenguanli" unicode="&#59084;" d="M688.6 547.6h-79l-98.4-174.1-97.1 174.1h-79.7l128.3-227.9H362v-60.2h114.9v-23.6H362V175h114.9v-107.3h68.5V175h116.2v60.9H545.4v23.6h116.2v60.2H559.7zM894.2 312.1l-99.7 302.5h0.1v64l17 52.2c16.3 49.9-20.9 101.1-73.3 101.1H284.9c-51.7 0-88.8-49.8-73.9-99.3l16.2-53.9v-63.8l-14.4-46.2-84.1-256.9C68.1 126.7 206-63.5 400.8-63.5h221.4c194.9-0.1 332.8 190.5 272 375.6zM270.6 744.9c-3.1 11.6 5.7 23 17.7 23h446.9c12.2 0 20.9-11.7 17.6-23.4l-19-65.9H288.2l-17.6 66.3z m571-558.9c-5.6-33.4-19.3-65.8-39.4-93.6-20.1-27.8-46.6-50.9-76.6-66.7-31.8-16.8-66.6-25.3-103.4-25.3H400.8c-36.8 0-71.6 8.5-103.4 25.2-30 15.8-56.5 38.8-76.6 66.6-20.1 27.8-33.8 60.1-39.4 93.5-6 35.5-3.3 71.2 8.2 106.1l104.7 322.8h432.9l106.2-322.5c11.4-34.9 14.2-70.6 8.2-106.1z"  horiz-adv-x="1024" />

    
    <glyph glyph-name="saoma2" unicode="&#58890;" d="M899.04-61.902c-14.327 0-25.907 11.58-25.907 25.906v285c0 14.326 11.579 25.91 25.907 25.91 14.326 0 25.91-11.583 25.91-25.91v-285c0-14.327-11.583-25.906-25.91-25.906z m0 388.634H121.775c-14.327 0-25.907 11.578-25.907 25.906 0 14.303 11.58 25.91 25.907 25.91H899.04c14.326 0 25.91-11.607 25.91-25.91 0-14.328-11.583-25.906-25.91-25.906z m-25.906 103.633H639.952c-28.602 0-51.818 23.215-51.818 51.817V715.364c0 28.603 23.215 51.817 51.818 51.817h233.182c28.603 0 51.817-23.214 51.817-51.817V482.18c0-28.601-23.215-51.816-51.817-51.816z m0 284.999H639.952V482.18h233.182V715.364zM510.408 430.365c-14.328 0-25.907 11.607-25.907 25.911V741.27c0 14.304 11.578 25.911 25.907 25.911 14.326 0 25.91-11.607 25.91-25.911v-284.994c0-14.304-11.583-25.911-25.91-25.911z m-129.545 0H147.685c-28.603 0-51.818 23.215-51.818 51.817V715.364c0 28.603 23.215 51.817 51.818 51.817h233.178c28.603 0 51.817-23.214 51.817-51.817V482.18c0-28.601-23.214-51.816-51.817-51.816z m0 284.999H147.685V482.18h233.178V715.364z m-233.178-440.45h233.178c28.603 0 51.817-23.214 51.817-51.82v-233.178c0-28.604-23.214-51.818-51.817-51.818H147.685c-28.603 0-51.818 23.214-51.818 51.818V223.093c0.001 28.607 23.216 51.822 51.818 51.822z m0-284.998h233.178V223.093H147.685v-233.177z m362.723 284.999c14.326 0 25.91-11.584 25.91-25.912v-284.999c0-14.326-11.583-25.906-25.91-25.906-14.328 0-25.907 11.58-25.907 25.906v285c0 14.327 11.58 25.91 25.907 25.91z m129.544 0c14.326 0 25.91-11.584 25.91-25.912v-284.999c0-14.326-11.583-25.906-25.91-25.906s-25.907 11.58-25.907 25.906v285c0 14.327 11.579 25.91 25.907 25.91z m129.545 0c14.326 0 25.91-11.584 25.91-25.912v-77.727c0-14.326-11.583-25.906-25.91-25.906-14.328 0-25.907 11.579-25.907 25.906v77.727c0 14.328 11.578 25.912 25.907 25.912z m0-181.366c14.326 0 25.91-11.579 25.91-25.906v-103.639c0-14.326-11.583-25.906-25.91-25.906-14.328 0-25.907 11.58-25.907 25.906V67.643c0 14.326 11.578 25.906 25.907 25.906z m0 0"  horiz-adv-x="1024" />

    
    <glyph glyph-name="trumpet" unicode="&#58979;" d="M157 492.68c-0.005 0.24-0.007 0.523-0.007 0.807 0 12.708 5.339 24.17 13.897 32.263 8.392 8.389 19.956 13.566 32.729 13.566 0.268 0 0.535-0.002 0.802-0.007l47.34 0.001v-211.31h-47.38c-0.226-0.004-0.492-0.006-0.758-0.006-12.774 0-24.339 5.177-32.712 13.546-8.578 8.113-13.917 19.574-13.917 32.282 0 0.277 0.003 0.553 0.008 0.829l-0.001 118.029zM683.42 686.68q32.34 30.83 58.66 33.84t46.63-13.91q20.29-16.9 34.58-49.61t23.31-72.95c10.151-43.688 16.338-94.082 17.082-145.792-0.674 35.802 0.965 5.929 0.971-24.326-0.015-26.143-2.079-53.863-6.054-80.962-6.090-42.964-18.251-84.779-35.526-123.827q8.476 17.288-6.184-9.002t-32.7-39.14q-18-12.79-38.73-9t-43.24 29.33q-21.81 25.57-59 42.49c-51.397 23.699-111.137 39.439-173.997 43.885 31.662 1.576-38.878 12.207-111.586 14.148q70.122-3.503 32.522 2.137t-62.79 10.9-28.2 12.79v235.39q3 10.53 23.69 17.3t52.64 12.79q32 6 72.19 13.16c68.629 12.519 129.806 32.54 186.979 59.633-36.851-19.444 22.384 11.649 74.224 51.826-49.869-37.076-10.688-2.747 17.692 39.451zM412.69 225.68q3.76-9 9-19.55 4.51-9.78 12-22.56t18-27.82q12.79-18 25.94-38t19.93-36.1q6.77-16.17 4.14-26.7t-21.43-10.53h-42.76c-0.197-0.002-0.431-0.003-0.664-0.003-9.82 0-19.156 2.077-27.591 5.815-14.167 6.638-26.061 17.177-34.326 30.24-12.792 10.642-30.401 39.873-40.366 72.443q14.208-37.846-0.082-12.976-17.29 28.58-24.060 50t-9 35.72q-3 16.54 0 28.58c9.537-1.345 18.149-3.758 26.246-7.154q-5.186 2.654 4.584 0.394t22.54-4.48q12.78-3 22.94-5.64t18.42-5.64q9-3 16.54-6z"  horiz-adv-x="1024" />

    
    <glyph glyph-name="xinxi1" unicode="&#58898;" d="M886.723 823.729h-725.746c-52.397 0-94.795-42.612-94.795-94.795v-580.725c0-52.397 42.612-94.795 94.795-94.795h108.924c12.393 0 22.394 10.001 22.394 22.394s-10.001 22.176-22.394 22.176h-108.924c-27.831 0-50.223 22.609-50.223 50.223v580.508c0 27.831 22.609 50.223 50.223 50.223h725.746c27.831 0 50.223-22.609 50.223-50.223v-580.725c0-27.831-22.609-50.223-50.223-50.223h-253.946c-5.87 0-11.522-2.389-15.87-6.522l-93.274-93.274-93.274 93.274c-4.35 4.35-10.001 6.522-15.87 6.522s-11.308-2.172-15.87-6.522c-4.13-4.35-6.522-9.782-6.522-15.87 0-5.87 2.389-11.522 6.522-15.654l108.924-108.924c8.48-8.48 23.263-8.48 31.745 0l102.186 102.404h245.25c52.397 0 94.795 42.612 94.795 94.795v580.725c0.219 52.397-42.397 95.011-94.795 95.011zM324.041 496.948c-22.394 0-40.438-18.045-40.438-40.438s18.045-40.438 40.438-40.438 40.438 18.045 40.438 40.438-18.045 40.438-40.438 40.438zM582.336 456.511c0 22.394-18.045 40.438-40.438 40.438s-40.438-18.045-40.438-40.438 18.045-40.438 40.438-40.438 40.438 18.265 40.438 40.438zM800.19 456.511c0 22.394-18.045 40.438-40.438 40.438s-40.438-18.045-40.438-40.438 18.045-40.438 40.438-40.438c22.176 0 40.438 18.265 40.438 40.438z"  horiz-adv-x="1024" />

    
    <glyph glyph-name="good" unicode="&#59108;" d="M797.8 513c-23.7 1.6-102.2-12.5-143.5-16.2 3.2 23.7 11 46 21.9 86.7 11.8 44 30.7 87.2 24.4 138.4-10.9 86.8-108.2 108.8-137.4 25.1-2.1-6-41.4-103-41.4-103-32-53.3-32.8-63.9-110.3-120.7-66.8-48.9-80.9-62.2-93.1-72.5-8.4-7.1-17.4-20.8-17.4-32v-352.4c0-11.8 5.5-22.8 14.9-29.7 51.2-37.7 231.5-68.3 322.2-68.3 47.2 0 73.7-1.3 110.9 19.9 19.8 11.3 22.4 28.7 32.1 38 45.5 43.4 32.3 101.7 43.4 113.2 51.5 53.4 40.9 118 48.1 135.4 20.6 49.8 12.8 48.4 22 82.7 31 115.9-16.7 150.1-96.8 155.4M178 482.4c-32.1 0-58.1-26.6-58.1-59.4v-359.7c0-32.8 26-59.4 58.1-59.4s58.1 26.6 58.1 59.4v359.7c-0.1 32.8-26.1 59.4-58.1 59.4M178 482.4z"  horiz-adv-x="1024" />

    
    <glyph glyph-name="jiantou" unicode="&#58881;" d="M786.049 356.681c0.629 1.26 1.731 2.362 2.205 3.62 11.022 22.989 7.402 51.33-12.123 69.753L331.166 850.929c-24.249 22.989-62.51 21.886-85.499-2.362s-21.886-62.51 2.362-85.499l399.305-377.734L249.606 2.09c-24.091-23.148-24.72-61.407-1.573-85.499 11.809-12.282 27.712-18.579 43.457-18.58 15.115 0 30.231 5.667 41.883 17.006l440.871 424.967c0.787 0.787 1.103 2.046 2.046 2.834 0.63 0.63 1.26 1.103 2.046 1.731 3.62 3.62 5.354 8.031 7.714 12.123z m0 0z"  horiz-adv-x="1024" />

    
    <glyph glyph-name="kehu" unicode="&#58977;" d="M250.94 558.038c32.027 0 59.371 11.325 82.026 33.992 22.667 22.66 33.998 50.011 33.998 82.033 0 32.03-11.331 59.379-33.998 82.04-22.655 22.666-50 33.996-82.027 33.996-32.034 0-59.374-11.33-82.04-33.996-22.654-22.662-33.991-50.005-33.991-82.04 0-32.027 11.337-59.372 33.992-82.033 22.666-22.662 50.005-33.992 82.04-33.992z m0 0M388.946 376.962c33.992-33.987 75.004-50.986 123.05-50.986 48.048 0 89.065 16.999 123.058 50.986 33.99 34.001 50.984 75.017 50.984 123.061 0 48.043-16.994 89.054-50.984 123.051-33.993 33.996-75.009 50.988-123.057 50.988-48.047 0-89.06-16.998-123.05-50.988-33.992-33.987-50.99-75.003-50.99-123.05s16.998-89.066 50.99-123.062z m0 0M773.071 558.038c32.023 0 59.367 11.325 82.034 33.992 22.655 22.66 33.98 50.011 33.98 82.033 0 32.03-11.325 59.379-33.98 82.04-22.667 22.666-50.01 33.996-82.034 33.996-32.039 0-59.378-11.33-82.044-33.996-22.65-22.662-33.98-50.005-33.98-82.04 0-32.027 11.33-59.372 33.98-82.033 22.666-22.662 50.005-33.992 82.044-33.992z m0 0M890.9 558.033c-1.81 0-8.378-3.173-19.708-9.52-11.325-6.347-26.067-12.768-44.19-19.262-18.126-6.494-36.107-9.742-53.932-9.742-20.25 0-40.333 3.47-60.278 10.427 1.505-11.178 2.264-21.151 2.264-29.913 0-42.001-12.241-80.676-36.723-116.03 48.953-1.51 88.986-20.851 120.114-58.022h60.736c24.778 0 45.627 6.132 62.542 18.362 16.92 12.235 25.382 30.144 25.382 53.705 0.005 106.668-18.726 160-56.206 159.995z m0 0M823.16 191.596c-3.173 17.683-7.183 34.075-12.014 49.179-4.836 15.11-11.335 29.833-19.483 44.185-8.162 14.346-17.53 26.592-28.112 36.718-10.578 10.124-23.498 18.202-38.75 24.25-15.26 6.04-32.112 9.061-50.536 9.061-3.026 0-9.514-3.252-19.492-9.746-9.973-6.494-20.994-13.756-33.082-21.756-12.088-7.998-28.245-15.25-48.5-21.75-20.256-6.493-40.65-9.746-61.189-9.746-20.54 0-40.943 3.253-61.183 9.746-20.25 6.5-36.414 13.752-48.501 21.75-12.088 8-23.113 15.262-33.081 21.756-9.978 6.494-16.468 9.746-19.493 9.746-18.434 0-35.275-3.02-50.536-9.061-15.262-6.048-28.176-14.126-38.755-24.25-10.579-10.12-19.94-22.373-28.102-36.718-8.158-14.352-14.65-29.07-19.488-44.185-4.831-15.104-8.836-31.497-12.01-49.18-3.179-17.676-5.289-34.138-6.346-49.405-1.058-15.257-1.59-30.896-1.59-46.91 0-36.254 11.031-64.889 33.086-85.882 22.062-20.998 51.373-31.497 87.928-31.497h396.135c36.56 0 65.862 10.5 87.934 31.497 22.055 20.992 33.081 49.627 33.081 85.881 0 16.015-0.532 31.65-1.574 46.91-1.068 15.267-3.184 31.73-6.346 49.407z m0 0M345.66 383.993c-24.481 35.354-36.712 74.029-36.706 116.03 0 8.763 0.757 18.73 2.263 29.913-19.94-6.952-40.039-10.427-60.278-10.427-17.83 0-35.808 3.248-53.937 9.742-18.125 6.494-32.86 12.914-44.186 19.262-11.33 6.346-17.908 9.52-19.718 9.52-37.47 0-56.205-53.332-56.205-159.995 0-23.56 8.462-41.47 25.376-53.705 16.925-12.231 37.776-18.357 62.547-18.357h60.736c31.128 37.166 71.156 56.506 120.109 58.017z m0 0"  horiz-adv-x="1024" />

    
    <glyph glyph-name="youshi1" unicode="&#58916;" d="M539.185841-106.477876l-9.705345 6.153062c-11.408991 7.240496-32.188035 15.278442-56.256567 24.594124-135.566726 52.477735-417.674195 161.665133-388.938761 626.207717 5.971823 95.784779-43.950442 119.400212-46.070938 120.360778l-14.979398 6.751151 5.011256 15.677168 45.309735 134.307115 19.465062-12.233628c110.229522-69.278584 318.998655-62.355257 433.43292 50.574725L539.185841 878.483257l12.732035-12.568921c114.40708-112.92092 323.203398-119.844248 433.405735-50.592849l19.465062 12.233628 50.73784-150.319575-15.59561-6.506478c-1.903009-0.860885-51.789027-24.485381-45.871576-120.261097 28.735434-464.47915-253.362973-573.702796-388.929699-626.189593-24.059469-9.306619-44.847575-17.353628-56.247504-24.594124l-9.696283-6.162124zM67.176212 695.277876c21.703363-16.193699 58.884531-57.334938 53.284248-147.057274-27.095221-438.054513 228.524177-537.001912 365.857982-590.159292 21.395257-8.282619 39.220106-15.187823 52.867399-22.256142 13.647292 7.068319 31.472142 13.973522 52.867398 22.256142 137.315681 53.166442 392.93508 152.122903 365.839858 590.15023-5.545912 89.704212 31.608071 130.845451 53.302372 147.03915l-26.370265 78.113983C863.685097 710.927858 663.615434 718.023363 539.185841 828.216637c-124.438655-110.202336-324.490195-117.288779-445.657487-54.833841L67.176212 695.277876z m319.125523-536.576l20.951221 165.888-115.675752 122.191292 166.177982 31.580885 65.599433 117.814372 15.885593-8.84446 15.785912 8.790088 65.599434-117.796248 166.187044-31.535575L671.127788 324.589876l20.951221-165.878938L539.185841 229.684106l-152.884106-70.98223zM363.47469 423.546336l81.874691-86.505345-14.888779-117.868743 108.725239 50.475044 108.707115-50.465982-14.879717 117.877805 81.87469 86.496283-117.687504 22.328637-58.032708 104.203328-57.99646-104.158018-117.696567-22.383009z"  horiz-adv-x="1078" />

    
    <glyph glyph-name="folder" unicode="&#58909;" d="M416 768h-288c-51.2 0-96-44.8-96-96v-576c0-51.2 44.8-96 96-96h768c51.2 0 96 44.8 96 96v480c0 51.2-44.8 96-96 96h-384l-96 96z"  horiz-adv-x="1024" />

    
    <glyph glyph-name="dianhua" unicode="&#58880;" d="M697.6 140.8c-6.4-12.8-19.2-12.8-25.6-12.8-64 19.2-153.6 64-249.6 160S275.2 473.6 262.4 537.6c0 6.4 0 19.2 6.4 25.6L51.2 780.8C-64 665.6 32 377.6 268.8 140.8s524.8-332.8 646.4-217.6l-217.6 217.6zM204.8 883.2C198.4 889.6 192 896 179.2 896c-6.4 0-19.2-6.4-25.6-12.8L76.8 806.4l217.6-217.6 76.8 76.8c6.4 12.8 12.8 19.2 12.8 32 0 6.4-6.4 19.2-12.8 25.6L204.8 883.2zM851.2 243.2c-6.4 6.4-12.8 12.8-25.6 12.8s-19.2-6.4-25.6-12.8l-76.8-76.8 217.6-217.6 76.8 76.8c6.4 6.4 12.8 12.8 12.8 25.6s-6.4 19.2-12.8 25.6l-166.4 166.4z"  horiz-adv-x="1030" />

    
    <glyph glyph-name="jiuhuashantubiao-" unicode="&#58942;" d="M783.809 689.832c59.404 31.04 119.477 60.901 178.472 92.634v-450.86c-7.227-3.085-14.353-7.764-22.478-7.816-10.828 1.233-19.443 9.693-23.71 19.362-44.027 95.074-87.335 190.608-133.211 284.811-6.277 14.401-18.027 28.286-15.273 44.925 1.491 8.485 9.254 13.143 16.2 16.944zM66.244 774.907c52.127-25.256 104.258-50.589 156.482-75.814 9.776-5.016 20.732-8.641 28.701-16.561 9.182-10.933 4.786-26.104-0.565-37.674-46.134-100.221-92.038-200.306-138.095-300.547-3.908-7.662-8.281-16.307-16.819-19.698-9.825-4.708-20.366 0.307-29.704 3.703V774.907z m441.629-123.908c32.887 8.772 67.271 2.369 100.084-3.392 44.313-13.987 89.723-29.904 136.916-27.311 45.93-98.829 91.497-197.758 137.865-296.304-7.174-17.355-14.582-34.588-21.756-51.973 20.884-25.172 28.389-62.435 12.164-92.009-10.39-26-38.832-38.346-65.165-39.885 0-18.853-3.24-39.297-17.595-52.928-14.961-18.18-39.957-24.613-62.592-20.83-1.67-25.509-16.896-49.941-41.041-59.459-24.688-9.562-52.074-0.307-72.723 14.3-12.706-39.963-67.456-55.931-99.783-29.545-11.883-20.265-32.038-41.736-57.912-36.825-28.955 5.528-43.178 39.833-31.967 65.779-11.902-15.249-28.443-30.162-49.22-29.266-16.896 2.135-31.63 13.705-40.581 27.751-8.744 16.663-2.287 36.054 4.734 52.177-10.312-11.287-24.563-19.777-40.094-20.24-16.971-0.073-32.4 10.239-42.382 23.35-12.086 17.54-9.178 40.89-0.355 59.199-9.927-8.25-20.373-17.33-33.717-18.977-18.388-3.855-36.517 6.301-48.526 19.567-12.345 15.766-11.984 38.141-6.018 56.294 13.246 20.445 28.236 39.809 41.66 60.229-19.34 25.304-38.035 50.992-57.553 76.067 6.789 13.992 13.113 28.238 19.439 42.327 23.379-28.979 44.799-59.608 68.25-88.485 17.643 1.852 38.219 3.265 52.334-9.592 15.971-15.146 19.057-38.627 15.766-59.408 3.549-3.676 7.121-7.224 10.747-10.85 33.048 7.505 65.038-22.526 62.596-55.599a464.178 464.178 0 0 0 15.276-12.964c15.633 2.524 34.1 0.956 44.563-12.394 9.854-9.928 13.709-23.554 16.59-36.825 7.049-6.403 14.709-12.188 22.76-17.336 9.436-5.604 22.81-6.325 28.468-17.048 6.38-12.524 18.334-20.312 29.729-27.877 12.676-6.842 33.12-4.911 38.827 10.156 2.009 5.533 5.814 13.89-0.974 17.644-28.316 22.861-57.145 45.056-85.483 67.89-7.482 4.63-5.733 14.972-3.188 21.887 6.53 8.28 20.445 9.177 28.262 2.237 42.893-31.526 85.871-63.055 128.708-94.665 13.169-11.16 34.31-4.548 41.923 10.084 7.969 13.523 3.442 31.887-8.82 41.172-48.453 37.108-97.546 73.392-146.151 110.169-1.538 7.817-3.595 17.076 2.524 23.559 6.916 3.802 16.459 7.968 23.043 1.209 55.287-40.276 110.27-81.088 165.352-121.719 9.826-8.539 25.821-9.797 36.106-1.438 13.221 11.93 16.18 35.772 2.007 48.009-62.285 47.139-124.467 94.408-186.542 141.721-7.794 4.552-5.587 14.894-4.475 22.399 5.55 10.879 21.905 9.854 30.187 2.7 62.543-46.388 125.111-92.73 187.6-139.147 11.293-10.107 28.883-9.129 41.018-1.135 18.748 14.894 21.857 46.475 3.191 62.699-92.17 84.119-184.642 167.9-276.914 251.895-29.832 24.119-82.037 5.964-89.826-31.816-5.941-35.022-27.545-67.968-59.584-84.246-18.569-9.338-40.71-17.643-61.107-8.977-18.153 4.376-37.131 22.067-29.057 42.151 10.441 21.576 17.643 44.949 17.283 69.2-0.691 31.504 10.029 62.881 28.672 88.414-33.969-0.151-67.865-0.054-101.812-0.054 7.818 16.356 15.485 32.843 23.097 49.325 51.378 0.229 102.917-0.999 154.246 0.542 22.834 11.243 46.032 22.374 70.926 28.417z"  horiz-adv-x="1024" />

    
    <glyph glyph-name="lianxiren1" unicode="&#58884;" d="M796.42624 264.5208177777779c26.91527111111111 0 48.753777777777785 21.83736888888889 48.753777777777785 48.736711111111106 0 15.52384-7.255608888888888 29.323946666666664-18.54464 38.245262222222216l0.2616888888888889 0.3197155555555556c-37.51822222222222 29.02698666666667-79.22346666666665 52.83271111111111-124.29539555555556 70.06776888888888 57.32352 49.18158222222222 93.82456888888889 122.00959999999999 93.82456888888889 203.44035555555556 0 148.05333333333334-120.04238222222222 268.09685333333334-268.0797866666666 268.09685333333334-148.10111999999998 0-268.1435022222222-120.04352-268.1435022222222-268.09685333333334 0-81.42961777777778 36.501048888888896-154.25877333333335 93.82456888888889-203.44035555555556C171.0751288888889 351.7110044444445 40.93838222222223 174.86961777777776 40.87580444444444-32.81009777777774v-0.09443555555555556c0.06371555555555555-26.837902222222223 21.901084444444443-48.65820444444444 48.753777777777785-48.65820444444444 26.91640888888889 0 48.62634666666666 21.82030222222222 48.753777777777785 48.65820444444444 0 215.02520888888887 174.9549511111111 389.9483022222222 389.96423111111113 389.9483022222222 88.15729777777777 0 169.40259555555554-29.758577777777777 234.70307555555556-79.30652444444445 8.713102222222224-8.188586666666666 20.442453333333333-13.216426666666665 33.375573333333335-13.216426666666665zM528.3464533333333 454.74133333333333c-94.0794311111111 0-170.63708444444444 76.52693333333333-170.63708444444444 170.58929777777774 0 94.06350222222223 76.55765333333333 170.62115555555556 170.63708444444444 170.62115555555556 94.01571555555556 0 170.5733688888889-76.55765333333333 170.5733688888889-170.62115555555556 0-94.06236444444444-76.55765333333333-170.58929777777774-170.5733688888889-170.58929777777774z m398.91399111111116-231.40352c-6.538808888888888 1.6190577777777777-13.331342222222222 2.5861688888888894-20.503893333333334 2.5861688888888894-41.896391111111114 0-76.36650666666667-34.12081777777778-76.36650666666667-76.36764444444445 0-34.45418666666667 23.042275555555552-63.72010666666666 54.27541333333333-73.12952888888888-23.42456888888889-38.35903999999999-55.61002666666666-71.1941688888889-93.952-94.92138666666668-11.680426666666667 26.980124444444442-38.65941333333333 45.83424-70.20999111111111 45.83424-42.21496888888889 0-76.36650666666667-34.12081777777778-76.36650666666667-76.38471111111112 0-4.870826666666666 0.31630222222222226-9.743928888888888 1.64864-14.297315555555555 6.476231111111111-35.104995555555554 37.009635555555555-61.75061333333334 73.76554666666667-62.085119999999996 20.948764444444443 0 32.502897777777775 5.459057777777778 42.786133333333325 9.110186666666666 110.52145777777777 39.182791111111115 192.47445333333332 130.7386311111111 217.5488 243.1169422222222 1.079751111111111 4.857173333333334 3.2381155555555554 15.09376 3.2381155555555554 22.75783111111111 0 35.08792888888889-23.74200888888889 64.67015111111111-55.86375111111111 73.78033777777777z"  horiz-adv-x="1024" />

    
    <glyph glyph-name="lianjie" unicode="&#59076;" d="M359 831.8L627.8 563l-52.3-164.3 82.1-78.6-78.3-78.1-41.1 40.8-14.9-44.8 145.6-145.3 134.4 137.9-168 168.2 78.4 78.2 246.4-246.4-291.2-294.7-272.6 272.3L448.6 369l-78.4 82.1 78.4 78.2 41.1-40.8 11.2 44.8L359 675 220.9 540.7l168-168.2-78.4-78.2L64.1 540.7 359 831.8z"  horiz-adv-x="1024" />

    
    </font>
</defs>
</svg>
